<svg id="Grupo_173" data-name="Grupo 173" xmlns="http://www.w3.org/2000/svg" xmlns:xlink="http://www.w3.org/1999/xlink" width="18.987" height="19.581" viewBox="0 0 18.987 19.581">
  <defs>
    <clipPath id="clip-path">
      <rect id="Retângulo_80" data-name="Retângulo 80" width="18.987" height="19.581" fill="#0da63e"/>
    </clipPath>
  </defs>
  <g id="Grupo_99" data-name="Grupo 99" clip-path="url(#clip-path)">
    <path id="Caminho_62" data-name="Caminho 62" d="M18.986,4.975c0-.369,0-.737-.031-1.106a2.65,2.65,0,0,0-2.132-2.405,5.408,5.408,0,0,0-.971-.047c-.563-.007-.488.057-.493-.485A1.365,1.365,0,0,0,15.3.5.76.76,0,0,0,14.4.01a.712.712,0,0,0-.6.666c-.011.133,0,.267-.005.4,0,.339,0,.34-.333.34H5.36c-.112,0-.16-.056-.162-.165,0-.165,0-.331,0-.5a.783.783,0,0,0-.107-.4A.748.748,0,0,0,4.265.012a.691.691,0,0,0-.6.542,1.426,1.426,0,0,0-.04.417c0,.492.054.443-.455.446-.191,0-.382-.008-.573,0A2.613,2.613,0,0,0,.347,2.8,3.068,3.068,0,0,0,0,4.383q0,5.805,0,11.611c0,.4,0,.8.031,1.2a2.529,2.529,0,0,0,.495,1.342A2.407,2.407,0,0,0,2.312,19.58H16.637a4.754,4.754,0,0,0,.524-.082,2.671,2.671,0,0,0,1.494-1.265,3.111,3.111,0,0,0,.329-1.551q.006-5.853,0-11.706m-1.522,11.9a1.154,1.154,0,0,1-1.257,1.258H2.78a1.155,1.155,0,0,1-1.257-1.259q0-4.526,0-9.052c0-.163.047-.2.2-.195q3.9.007,7.792,0,3.877,0,7.754,0c.155,0,.2.033.2.2q-.008,4.526,0,9.052m0-11.072c0,.378,0,.378-.372.378H9.473q-3.866,0-7.732,0c-.164,0-.227-.027-.223-.212.014-.6,0-1.209.006-1.814A1.149,1.149,0,0,1,2.766,2.923c.261,0,.522.006.783,0,.113,0,.158.02.15.144-.012.19-.008.382,0,.572a.724.724,0,1,0,1.447-.02,3.88,3.88,0,0,0,0-.5c-.021-.18.053-.2.211-.2,1.292.006,2.584,0,3.876,0,1.476,0,2.953,0,4.429,0,.144,0,.2.028.19.184a5.039,5.039,0,0,0,0,.515.724.724,0,1,0,1.447.016c.007-.191.007-.382,0-.573,0-.1.016-.146.132-.143.312.009.624,0,.935,0a1.107,1.107,0,0,1,1.085.986c.058.628.014,1.259.021,1.889" transform="translate(0 0.001)" fill="#0da63e"/>
  </g>
</svg>
