<svg id="Grupo_176" data-name="Grupo 176" xmlns="http://www.w3.org/2000/svg" xmlns:xlink="http://www.w3.org/1999/xlink" width="20.508" height="18.014" viewBox="0 0 20.508 18.014">
  <defs>
    <clipPath id="clip-path">
      <rect id="Retângulo_106" data-name="Retângulo 106" width="20.508" height="18.014" transform="translate(0 0)" fill="#0da63e"/>
    </clipPath>
  </defs>
  <g id="Grupo_175" data-name="Grupo 175" clip-path="url(#clip-path)">
    <path id="Caminho_101" data-name="Caminho 101" d="M6.848,3.215c4.2,0,8.393,0,12.559,0a1.053,1.053,0,0,0,1.073-.6l.028-.5-.02-.048a1.026,1.026,0,0,0-1.038-.623q-6.285,0-12.569,0H6.817c-.053,0-.105,0-.151,0a.918.918,0,0,0-.212.038.88.88,0,0,0-.58,1.1.9.9,0,0,0,.974.624" fill="#0da63e"/>
    <path id="Caminho_102" data-name="Caminho 102" d="M19.417,14.781q-6.259.006-12.512.006a2.022,2.022,0,0,0-.416.034.87.87,0,0,0-.627,1.057.9.9,0,0,0,.948.674c4.211-.006,8.423,0,12.605,0a1.016,1.016,0,0,0,.123.008,1.028,1.028,0,0,0,.946-.629l.02-.448-.024-.107a1.041,1.041,0,0,0-1.063-.6" fill="#0da63e"/>
    <path id="Caminho_103" data-name="Caminho 103" d="M20.472,8.69a1.076,1.076,0,0,0-1.086-.571c-.956.014-1.913.011-2.872.009l-1.125,0H6.775a1.059,1.059,0,0,0-.138,0,.878.878,0,0,0-.8.944.866.866,0,0,0,.306.6.847.847,0,0,0,.619.207c4.216-.005,8.434,0,12.622,0a1.047,1.047,0,0,0,.136.009,1.089,1.089,0,0,0,.959-.577l.029-.056,0-.453Z" fill="#0da63e"/>
    <path id="Caminho_104" data-name="Caminho 104" d="M4.663,8.211A1.663,1.663,0,0,0,3.03,6.671a11.044,11.044,0,0,0-1.478.006A1.679,1.679,0,0,0,.043,8.019,5.6,5.6,0,0,0,0,8.938V9.69a1.7,1.7,0,0,0,1.531,1.634c.267.02.535.03.8.03.229,0,.457-.008.68-.022A1.666,1.666,0,0,0,4.665,9.8a8.25,8.25,0,0,0,0-1.587Zm-1.746.2V9.578c-.132-.005-.262,0-.393,0l-.765.007,0-1.156Zm1.5-.177h0l0,0,.08-.005Z" fill="#0da63e"/>
    <path id="Caminho_105" data-name="Caminho 105" d="M3.207,13.361a6.228,6.228,0,0,0-1.714,0A1.658,1.658,0,0,0,0,15.109v1.213a1.7,1.7,0,0,0,1.33,1.646,5.541,5.541,0,0,0,.713.046c.077,0,.153,0,.229,0h.73A1.688,1.688,0,0,0,4.64,16.6a7.427,7.427,0,0,0,.023-1.712,1.623,1.623,0,0,0-1.456-1.528M1.759,16.255V15.1l1.158-.01.035,1.172-.037.229v-.232Z" fill="#0da63e"/>
    <path id="Caminho_106" data-name="Caminho 106" d="M4.646,1.454A1.641,1.641,0,0,0,3.226.021,6.245,6.245,0,0,0,2.6,0H1.681A1.687,1.687,0,0,0,.006,1.68V2.991A1.676,1.676,0,0,0,1.423,4.637a7.254,7.254,0,0,0,.941.062,7.1,7.1,0,0,0,.761-.041A1.631,1.631,0,0,0,4.649,3.194a6.417,6.417,0,0,0,0-1.74ZM4.4,1.487h0l.02,0ZM2.915,1.75V2.91l-1.16,0,0-1.155Z" fill="#0da63e"/>
  </g>
</svg>
