<svg xmlns="http://www.w3.org/2000/svg" xmlns:xlink="http://www.w3.org/1999/xlink" width="20.001" height="20" viewBox="0 0 20.001 20">
  <defs>
    <clipPath id="clip-path">
      <rect id="Retângulo_81" data-name="Retângulo 81" width="20.001" height="20" fill="#0da63e"/>
    </clipPath>
  </defs>
  <g id="Grupo_100" data-name="Grupo 100" clip-path="url(#clip-path)">
    <path id="Caminho_63" data-name="Caminho 63" d="M408.332,193.5c-.059-.043-.036-.1-.034-.159.012-.015.024-.014.034,0Z" transform="translate(-388.331 -183.88)" fill="#0da63e"/>
    <path id="Caminho_64" data-name="Caminho 64" d="M193.337,408.283c.056,0,.116-.026.159.034h-.156c-.012-.007-.016-.014-.013-.022s.007-.012.011-.012" transform="translate(-183.874 -388.317)" fill="#0da63e"/>
    <path id="Caminho_65" data-name="Caminho 65" d="M408.336,212.076c0-.044-.017-.09.033-.119v.117q-.015.025-.033,0" transform="translate(-388.368 -201.595)" fill="#0da63e"/>
    <path id="Caminho_66" data-name="Caminho 66" d="M211.972,408.355c.029-.05.075-.038.119-.033q.017.012.011.023c0,.007-.008.011-.012.011Z" transform="translate(-201.609 -388.355)" fill="#0da63e"/>
    <path id="Caminho_67" data-name="Caminho 67" d="M408.394,192.082l-.034,0c0-.032-.012-.066.034-.076Z" transform="translate(-388.393 -182.617)" fill="#0da63e"/>
    <path id="Caminho_68" data-name="Caminho 68" d="M408.428,214.354l.033,0v.078c-.01.016-.021.018-.033,0s0-.053,0-.079" transform="translate(-388.461 -203.873)" fill="#0da63e"/>
    <path id="Caminho_69" data-name="Caminho 69" d="M408.357,215.949l.033,0v.078c-.048-.009-.038-.044-.033-.076" transform="translate(-388.389 -205.39)" fill="#0da63e"/>
    <path id="Caminho_70" data-name="Caminho 70" d="M192.094,408.345a.165.165,0,0,1,0,.034h-.078c.01-.046.044-.037.076-.034" transform="translate(-182.631 -388.378)" fill="#0da63e"/>
    <path id="Caminho_71" data-name="Caminho 71" d="M214.366,408.446q0-.017,0-.033h.079q.016.012.01.023c0,.007-.008.01-.012.01Z" transform="translate(-203.886 -388.446)" fill="#0da63e"/>
    <path id="Caminho_72" data-name="Caminho 72" d="M215.962,408.374a.3.3,0,0,1,0-.033c.032,0,.066-.015.076.033Z" transform="translate(-205.404 -388.374)" fill="#0da63e"/>
    <path id="Caminho_73" data-name="Caminho 73" d="M20,9.231a.08.08,0,0,1-.02-.053,7.306,7.306,0,0,0-.424-2.271,9.974,9.974,0,0,0-2.99-4.487A10.1,10.1,0,0,0,13.225.5,10.3,10.3,0,0,0,9.344.015,9.036,9.036,0,0,0,6.9.469,9.957,9.957,0,0,0,2.415,3.461,10.078,10.078,0,0,0,.528,6.714a10.26,10.26,0,0,0-.514,3.954A9.1,9.1,0,0,0,.472,13.13,10.1,10.1,0,0,0,8.4,19.922c.261.044.528.034.79.078h.2c.026-.028.061-.018.092-.02.047.007.1-.017.142.02h.741c.033-.033.075-.015.113-.02h.071c.031,0,.064-.007.088.02h.117c.294-.041.593-.031.886-.082a9.954,9.954,0,0,0,5.96-3.352,9.893,9.893,0,0,0,2.316-4.908c.047-.274.04-.553.085-.827v-.2c-.027-.025-.018-.058-.02-.088s0-.048,0-.071-.013-.08.02-.113V9.621c-.037-.043-.013-.095-.02-.142,0-.032-.008-.066.02-.092Zm-9.992,9.218a8.438,8.438,0,1,1,8.441-8.439,8.445,8.445,0,0,1-8.441,8.439" transform="translate(0 0)" fill="#0da63e"/>
    <path id="Caminho_74" data-name="Caminho 74" d="M190.443,98.1c0,.676,0,1.352,0,2.028a.278.278,0,0,0,.129.256q1.306.97,2.6,1.951a.774.774,0,1,1-.892,1.262c-.478-.347-.946-.708-1.419-1.063-.53-.4-1.058-.8-1.591-1.19a.874.874,0,0,1-.381-.747q0-2.252,0-4.5a.789.789,0,0,1,.611-.819.779.779,0,0,1,.861.421.983.983,0,0,1,.082.437c0,.657,0,1.313,0,1.97" transform="translate(-179.654 -90.603)" fill="#0da63e"/>
  </g>
</svg>
