<svg id="Grupo_95" data-name="Grupo 95" xmlns="http://www.w3.org/2000/svg" xmlns:xlink="http://www.w3.org/1999/xlink" width="17.987" height="22.111" viewBox="0 0 17.987 22.111">
  <defs>
    <clipPath id="clip-path">
      <rect id="Retângulo_79" data-name="Retângulo 79" width="17.987" height="22.111" fill="#0da63e"/>
    </clipPath>
  </defs>
  <g id="Grupo_94" data-name="Grupo 94" clip-path="url(#clip-path)">
    <path id="Caminho_60" data-name="Caminho 60" d="M83.758,79.8A3.861,3.861,0,1,0,87.6,83.758,3.882,3.882,0,0,0,83.758,79.8m-.02,6.161a2.3,2.3,0,1,1,2.311-2.3,2.318,2.318,0,0,1-2.311,2.3" transform="translate(-74.737 -74.663)" fill="#0da63e"/>
    <path id="Caminho_61" data-name="Caminho 61" d="M17.863,7.373A9.052,9.052,0,0,0,9.053,0,10.4,10.4,0,0,0,7.781.083,8.706,8.706,0,0,0,6.748.29,8.892,8.892,0,0,0,.362,6.513,7.008,7.008,0,0,0,.53,11.42,18.663,18.663,0,0,0,2.3,14.677a46.39,46.39,0,0,0,6.024,7.076.817.817,0,0,0,1.348.005,52.91,52.91,0,0,0,3.632-3.916A29.55,29.55,0,0,0,16.936,12.6a7.864,7.864,0,0,0,.928-5.226m-2.1,4.1a21.832,21.832,0,0,1-2.577,4.039,49.161,49.161,0,0,1-4.053,4.6c-.082.082-.133.137-.244.023a40.806,40.806,0,0,1-6.036-7.492A9.436,9.436,0,0,1,1.685,9.949,5.763,5.763,0,0,1,1.95,6.642,7.258,7.258,0,0,1,7.993,1.63a7.425,7.425,0,0,1,8.286,5.813,6.709,6.709,0,0,1,.154,1.263,5.862,5.862,0,0,1-.668,2.764" transform="translate(0)" fill="#0da63e"/>
  </g>
</svg>
