<svg xmlns="http://www.w3.org/2000/svg" xmlns:xlink="http://www.w3.org/1999/xlink" width="25.364" height="15.281" viewBox="0 0 25.364 15.281">
  <defs>
    <clipPath id="clip-path">
      <rect id="Retângulo_107" data-name="Retângulo 107" width="25.364" height="15.281" fill="#0da63e"/>
    </clipPath>
  </defs>
  <g id="Grupo_178" data-name="Grupo 178" transform="translate(0 0)">
    <g id="Grupo_177" data-name="Grupo 177" transform="translate(0 0)" clip-path="url(#clip-path)">
      <path id="Caminho_107" data-name="Caminho 107" d="M25.31,10.49a.245.245,0,0,1,0-.039.484.484,0,0,0,0-.078l-.128.016v-.007l.128-.016c-.026-.207-.05-.414-.075-.621-.049-.407-.1-.814-.155-1.219-.091-.616-.239-.74-.885-.741h-.024a1.62,1.62,0,0,1-1.562-2.062A1.671,1.671,0,0,1,23.925,4.57a.636.636,0,0,0,.593-.677.472.472,0,0,0-.01-.078l-.051-.4c-.079-.618-.157-1.237-.229-1.856A1.762,1.762,0,0,0,22.316.008c-.6.061-1.2.132-1.8.2l-2,.237q-1.473.176-2.946.347-1.42.163-2.84.323-1.14.129-2.28.26c-1.762.2-3.527.408-5.283.615A1.759,1.759,0,0,0,4.046,2.5a.253.253,0,0,1-.208.075H3.193c-.43,0-.858,0-1.279,0a1.778,1.778,0,0,0-1.288.412,1.755,1.755,0,0,0-.619,1.2,1.706,1.706,0,0,0,0,.241c.026.47.02.953.013,1.42,0,.214-.006.43-.006.644,0,.579.191.782.782.833A1.608,1.608,0,0,1,2.242,9.079a1.516,1.516,0,0,1-.047.263A1.653,1.653,0,0,1,.629,10.552a.624.624,0,0,0-.43.163.6.6,0,0,0-.19.42.555.555,0,0,0,0,.064v2.426a1.484,1.484,0,0,0,.18.7,1.794,1.794,0,0,0,1.581.96c.046,0,.092,0,.138-.005H18.028c.327,0,.654,0,.974,0h.079a1.756,1.756,0,0,0,1.691-1.311,3.372,3.372,0,0,0,.059-.948c0-.052,0-.062,0-.061a.16.16,0,0,1,.049-.009c.867-.091,1.733-.187,2.59-.291a2.53,2.53,0,0,0,1.088-.3,1.941,1.941,0,0,0,.8-1.115l0-.654.006-.056Zm-1.664,1.04,0-.006-.016-.128c-.56.069-1.121.134-1.683.2l-1.114.127c0-.161.005-.321,0-.48a.632.632,0,0,0-.658-.7,1.719,1.719,0,0,1-1.415-.894,1.6,1.6,0,0,1,1.293-2.322c.582-.055.786-.276.778-.846,0-.274,0-.547,0-.82,0-.5.008-1.024-.025-1.544a1.7,1.7,0,0,0-1.668-1.523.661.661,0,0,0-.31-.024H10.833l.576-.065q1.336-.151,2.67-.311l8.084-.932c.076-.01.151-.02.245-.024a.5.5,0,0,1,.368.084.486.486,0,0,1,.2.319c0,.019.005.036.007.064.046.321.082.643.119.965.028.252.056.5.088.754.011.077.009.094-.1.137a2.786,2.786,0,0,0-.82,4.747,2.874,2.874,0,0,0,1.557.683l.045.006a.256.256,0,0,1,.008.048c.05.442.107.883.165,1.324l.058.447a.509.509,0,0,1-.423.581l-.048.006Zm-4.079,2.014a.462.462,0,0,1-.438.487.447.447,0,0,1-.074,0c-.511,0-1.019.005-1.528,0q-.657,0-1.312,0h-.031v-.027c.008-.2.008-.4,0-.594V3.894a.667.667,0,0,0,0-.087c.005,0,.014-.009.089-.008.522.006,1.044.005,1.565,0h1.173a.491.491,0,0,1,.556.417.587.587,0,0,1,0,.142V6.05c0,.1,0,.11-.093.134a2.808,2.808,0,0,0,.009,5.469c.088.024.088.029.086.094-.006.338-.005.676-.005,1.015,0,.257,0,.513,0,.769h.129l0,.006Zm-4.641-1.689v1.533a4.6,4.6,0,0,0,0,.585c0,.038,0,.057,0,.06a.33.33,0,0,1-.09.008h0c-.321,0-.643,0-.964,0h-.964l-10.957,0c-.542,0-.7-.153-.7-.683l0-.531c0-.354,0-.709,0-1.061,0-.077,0-.079.074-.1a2.741,2.741,0,0,0,2.11-2.134,2.665,2.665,0,0,0-1-2.806A2.612,2.612,0,0,0,1.322,6.18c-.076-.017-.076-.017-.075-.1,0-.376,0-.751,0-1.128l0-.578a.515.515,0,0,1,.446-.574.59.59,0,0,1,.158,0H8.321q3.209,0,6.42-.005c.128,0,.162.014.17.024s.023.028.022.144c-.01,1.383-.008,5.452-.007,7.884" transform="translate(0 0)" fill="#0da63e"/>
      <path id="Caminho_108" data-name="Caminho 108" d="M11.97,7.144l-.514-.076c-.294-.043-.6-.088-.895-.128l-.214-.419c-.122-.237-.247-.483-.361-.712A1.074,1.074,0,0,0,9,5.126a1.058,1.058,0,0,0-.939.665c-.106.216-.217.435-.326.649l-.053.1c-.068.133-.137.265-.2.4l-.519.076-.052.008c-.256.038-.52.077-.767.11a1.016,1.016,0,0,0-.922.682.982.982,0,0,0,.323,1.058l.371.35c.2.192.4.382.607.574-.032.182-.062.363-.092.54l-.021.124c-.035.208-.072.419-.11.615a1,1,0,0,0,.371,1.07,1.066,1.066,0,0,0,1.169.022c.1-.056.214-.111.323-.166l.319-.164.478-.249.06-.031c.266.139.534.275.8.408l.439.224a1.182,1.182,0,0,0,.532.144l0-.059v.058a.994.994,0,0,0,.414-.094.974.974,0,0,0,.547-1.144c-.067-.394-.145-.846-.233-1.3l.141-.132c.144-.137.289-.272.429-.406l.425-.4a1.036,1.036,0,0,0,.356-.761.978.978,0,0,0-.9-.953M10.329,9.863c.08.4.151.81.215,1.174l-.187-.093c-.3-.155-.614-.314-.923-.475a.9.9,0,0,0-.411-.108h0a.9.9,0,0,0-.413.107c-.221.117-.458.237-.67.345q-.211.106-.432.22c.028-.158.055-.317.081-.472l.029-.17c.032-.186.064-.378.1-.561a.764.764,0,0,0-.245-.744c-.246-.23-.49-.46-.735-.691l-.166-.157.194-.029.321-.047.34-.047c.136-.02.272-.039.4-.056a.785.785,0,0,0,.629-.444c.093-.186.187-.371.3-.58.088-.173.178-.349.27-.532.089.178.18.355.268.528.1.188.195.378.288.564a.8.8,0,0,0,.644.457c.4.051.8.111,1.19.169l.059.008-.3.284c-.193.184-.389.372-.581.549a.815.815,0,0,0-.264.8" transform="translate(0.184 0.183)" fill="#0da63e"/>
    </g>
  </g>
</svg>
