<svg xmlns="http://www.w3.org/2000/svg" width="21.158" height="12.689" viewBox="0 0 21.158 12.689">
  <g id="Grupo_15" data-name="Grupo 15" transform="translate(-928.435 243.517)">
    <path id="Caminho_7" data-name="Caminho 7" d="M938.661-230.828a10.265,10.265,0,0,1-4.586-1.339,18.364,18.364,0,0,1-5.433-4.515.676.676,0,0,1-.03-.942,17.557,17.557,0,0,1,6.612-5.094,9.465,9.465,0,0,1,7.931.147,17.838,17.838,0,0,1,6.252,4.933.672.672,0,0,1,0,.926,17.239,17.239,0,0,1-7.127,5.288A10.171,10.171,0,0,1,938.661-230.828Zm-8.578-6.354a.688.688,0,0,0,.049.075,17.26,17.26,0,0,0,4.834,3.807,8.987,8.987,0,0,0,3.849,1.057,8.424,8.424,0,0,0,3.73-.81,15.805,15.805,0,0,0,4.539-3.214c.3-.29.58-.6.878-.9-.163-.174-.3-.325-.443-.472a16.42,16.42,0,0,0-4.953-3.643,8.039,8.039,0,0,0-6.121-.385,13.291,13.291,0,0,0-3.915,2.193A19.119,19.119,0,0,0,930.084-237.182Z" transform="translate(0)" fill="#636363"/>
    <path id="Caminho_8" data-name="Caminho 8" d="M1051.887-195.561a3.528,3.528,0,0,1,3.52,3.515,3.533,3.533,0,0,1-3.505,3.532,3.53,3.53,0,0,1-3.542-3.494A3.526,3.526,0,0,1,1051.887-195.561Zm0,1.409a2.118,2.118,0,0,0-2.119,2.087,2.116,2.116,0,0,0,2.109,2.141,2.118,2.118,0,0,0,2.119-2.087A2.118,2.118,0,0,0,1051.889-194.152Z" transform="translate(-112.87 -45.134)" fill="#636363"/>
  </g>
</svg>
