<svg id="Grupo_110" data-name="Grupo 110" xmlns="http://www.w3.org/2000/svg" xmlns:xlink="http://www.w3.org/1999/xlink" width="12.857" height="13.259" viewBox="0 0 12.857 13.259">
  <defs>
    <clipPath id="clip-path">
      <rect id="Retângulo_80" data-name="Retângulo 80" width="12.857" height="13.259" fill="#0da63e"/>
    </clipPath>
  </defs>
  <g id="Grupo_99" data-name="Grupo 99" clip-path="url(#clip-path)">
    <path id="Caminho_62" data-name="Caminho 62" d="M12.856,3.369c0-.25,0-.5-.021-.749A1.8,1.8,0,0,0,11.392.991a3.662,3.662,0,0,0-.657-.032C10.353.955,10.4,1,10.4.631a.924.924,0,0,0-.038-.293A.515.515,0,0,0,9.75.007a.482.482,0,0,0-.408.451c-.008.09,0,.181,0,.271,0,.23,0,.23-.226.23H3.63c-.076,0-.108-.038-.11-.112,0-.112,0-.224,0-.336A.53.53,0,0,0,3.446.239.507.507,0,0,0,2.888.008a.468.468,0,0,0-.4.367.966.966,0,0,0-.027.282c0,.333.036.3-.308.3-.129,0-.259-.005-.388,0a1.769,1.769,0,0,0-1.527.934A2.077,2.077,0,0,0,0,2.968Q0,6.9,0,10.83c0,.271,0,.542.021.814a1.713,1.713,0,0,0,.335.909,1.63,1.63,0,0,0,1.209.706h9.7a3.219,3.219,0,0,0,.355-.056,1.809,1.809,0,0,0,1.012-.857,2.106,2.106,0,0,0,.223-1.051q0-3.963,0-7.927m-1.031,8.056a.782.782,0,0,1-.851.852H1.883a.782.782,0,0,1-.851-.852q0-3.065,0-6.13c0-.111.032-.132.136-.132q2.638.005,5.277,0t5.251,0c.105,0,.136.022.136.132q-.005,3.065,0,6.13m0-7.5c0,.256,0,.256-.252.256H6.415q-2.618,0-5.236,0c-.111,0-.154-.018-.151-.144.009-.409,0-.819,0-1.228a.778.778,0,0,1,.841-.834c.177,0,.354,0,.53,0,.077,0,.107.014.1.1-.008.129-.006.259,0,.388a.49.49,0,1,0,.98-.013,2.627,2.627,0,0,0,0-.336c-.014-.122.036-.137.143-.137.875,0,1.75,0,2.624,0,1,0,2,0,3,0,.1,0,.138.019.128.125a3.412,3.412,0,0,0,0,.349.49.49,0,1,0,.98.011c0-.129,0-.259,0-.388,0-.069.011-.1.089-.1.211.006.422,0,.633,0a.75.75,0,0,1,.735.667c.039.425.009.853.014,1.279" transform="translate(0 0.001)" fill="#0da63e"/>
  </g>
</svg>
