<svg id="Grupo_109" data-name="Grupo 109" xmlns="http://www.w3.org/2000/svg" xmlns:xlink="http://www.w3.org/1999/xlink" width="11.512" height="14.151" viewBox="0 0 11.512 14.151">
  <defs>
    <clipPath id="clip-path">
      <rect id="Retângulo_79" data-name="Retângulo 79" width="11.512" height="14.151" fill="#0da63e"/>
    </clipPath>
  </defs>
  <g id="Grupo_94" data-name="Grupo 94" clip-path="url(#clip-path)">
    <path id="Caminho_60" data-name="Caminho 60" d="M82.361,79.8a2.471,2.471,0,1,0,2.458,2.534A2.485,2.485,0,0,0,82.361,79.8m-.013,3.943a1.472,1.472,0,1,1,1.479-1.472,1.484,1.484,0,0,1-1.479,1.472" transform="translate(-76.587 -76.512)" fill="#0da63e"/>
    <path id="Caminho_61" data-name="Caminho 61" d="M11.433,4.719A5.794,5.794,0,0,0,5.794,0,6.659,6.659,0,0,0,4.98.053a5.572,5.572,0,0,0-.661.133A5.691,5.691,0,0,0,.232,4.168a4.485,4.485,0,0,0,.107,3.14A11.945,11.945,0,0,0,1.474,9.394a29.691,29.691,0,0,0,3.856,4.529.523.523,0,0,0,.863,0,33.863,33.863,0,0,0,2.324-2.506,18.913,18.913,0,0,0,2.323-3.356,5.033,5.033,0,0,0,.594-3.345M10.09,7.341A13.973,13.973,0,0,1,8.44,9.926a31.464,31.464,0,0,1-2.594,2.946c-.052.053-.085.087-.156.014a26.117,26.117,0,0,1-3.863-4.8,6.039,6.039,0,0,1-.748-1.724,3.688,3.688,0,0,1,.169-2.116A4.645,4.645,0,0,1,5.115,1.043a4.752,4.752,0,0,1,5.3,3.72,4.294,4.294,0,0,1,.1.809,3.752,3.752,0,0,1-.428,1.769" transform="translate(0)" fill="#0da63e"/>
  </g>
</svg>
