<svg id="Grupo_203" data-name="Grupo 203" xmlns="http://www.w3.org/2000/svg" xmlns:xlink="http://www.w3.org/1999/xlink" width="14.14" height="17.508" viewBox="0 0 14.14 17.508">
  <defs>
    <clipPath id="clip-path">
      <rect id="Retângulo_111" data-name="Retângulo 111" width="14.14" height="17.508" fill="#74ffa0"/>
    </clipPath>
  </defs>
  <g id="Grupo_202" data-name="Grupo 202" clip-path="url(#clip-path)">
    <path id="Caminho_109" data-name="Caminho 109" d="M4.782,169.389a6.675,6.675,0,0,0-.753-.164,5.2,5.2,0,0,1-3.851-3.851,5.307,5.307,0,0,1,3.48-6.383c.143-.048.158-.013.156.118q-.01.658,0,1.316a.2.2,0,0,1-.127.207,3.754,3.754,0,0,0-2.067,2.6,3.8,3.8,0,0,0,7.33,2.008c.035-.1.085-.123.188-.142a.509.509,0,0,1,.644.391,5.365,5.365,0,0,0,.343.684.2.2,0,0,1,.007.217,5.343,5.343,0,0,1-3.664,2.881c-.217.052-.441.078-.662.117H5.055c-.019-.021-.044-.017-.068-.018s-.049,0-.068.018Z" transform="translate(0.001 -151.881)" fill="#74ffa0"/>
    <path id="Caminho_110" data-name="Caminho 110" d="M110.308,391.947c.01-.037.039-.032.066-.029.012.006.017.012.013.018s-.007.01-.011.01Z" transform="translate(-105.389 -374.439)" fill="#74ffa0"/>
    <path id="Caminho_111" data-name="Caminho 111" d="M111.8,391.947c0-.01,0-.019,0-.029.03-.006.056,0,.07.029Z" transform="translate(-106.814 -374.439)" fill="#74ffa0"/>
    <path id="Caminho_112" data-name="Caminho 112" d="M107.941,97.407c0-.832-.009-1.664,0-2.5a1.527,1.527,0,0,1,2.3-1.293,1.485,1.485,0,0,1,.739,1.323c.011.706.007,1.413,0,2.119,0,.132.036.157.16.156.769-.006,1.538,0,2.307,0a.79.79,0,0,1,.813.549.779.779,0,0,1-.754.981c-.781,0-1.561.006-2.341,0-.148,0-.2.03-.183.183a1.513,1.513,0,0,1,0,.341c-.012.124.036.147.151.146.877,0,1.755.006,2.632-.006a1.166,1.166,0,0,1,1.165.715c.718,1.447,1.461,2.881,2.193,4.322a1.025,1.025,0,0,1-.133,1.229,1.011,1.011,0,0,1-1.657-.267c-.371-.714-.731-1.434-1.1-2.151-.285-.561-.573-1.12-.853-1.683a.2.2,0,0,0-.207-.126q-1.812.006-3.623,0a1.562,1.562,0,0,1-1.611-1.595q0-1.222,0-2.444" transform="translate(-103.125 -89.24)" fill="#74ffa0"/>
    <path id="Caminho_113" data-name="Caminho 113" d="M103.412,1.722a1.726,1.726,0,1,1,3.453.015,1.726,1.726,0,0,1-3.453-.015" transform="translate(-98.801 0)" fill="#74ffa0"/>
  </g>
</svg>
