<svg id="Grupo_80" data-name="Grupo 80" xmlns="http://www.w3.org/2000/svg" xmlns:xlink="http://www.w3.org/1999/xlink" width="16" height="16" viewBox="0 0 16 16">
  <defs>
    <clipPath id="clip-path">
      <rect id="Retângulo_37" data-name="Retângulo 37" width="16" height="16" fill="#fff"/>
    </clipPath>
  </defs>
  <g id="Grupo_61" data-name="Grupo 61" clip-path="url(#clip-path)">
    <path id="Caminho_51" data-name="Caminho 51" d="M15.121.029a.976.976,0,0,1,.8.652,1,1,0,0,1-.185,1.049c-.043.052-.093.1-.141.146Q12.591,4.884,9.58,7.89c-.09.09-.107.131,0,.232q3.032,3.019,6.055,6.046A1.042,1.042,0,1,1,14.224,15.7l-1.5-1.5q-2.308-2.307-4.613-4.617c-.094-.094-.136-.087-.226,0-2.022,2.027-4.051,4.045-6.067,6.078a1.1,1.1,0,0,1-1.5.051A1.564,1.564,0,0,1,0,15.177V14.74a1.02,1.02,0,0,1,.337-.595q3.01-3,6.015-6.011c.148-.148.131-.116,0-.247Q3.346,4.88.338,1.875A.96.96,0,0,1,0,1.249V.843A.933.933,0,0,1,.419.166.718.718,0,0,1,.884.016c.08-.009.162.019.24-.016h.031A1.138,1.138,0,0,1,1.9.394Q4.855,3.357,7.817,6.31c.033.033.067.065.1.1a.1.1,0,0,0,.16,0c.036-.037.074-.073.111-.11L14.146.342a.9.9,0,0,1,.728-.325.994.994,0,0,1,.247.013" fill="#fff"/>
    <path id="Caminho_52" data-name="Caminho 52" d="M304.473.025A.032.032,0,0,1,304.48,0h.281a.021.021,0,0,0,0,.029l-.29,0" transform="translate(-289.643)" fill="#fff"/>
    <path id="Caminho_53" data-name="Caminho 53" d="M17.9.029,17.9,0h.25c-.079.053-.168.025-.253.029" transform="translate(-17.029)" fill="#fff"/>
  </g>
</svg>
