<svg id="Grupo_205" data-name="Grupo 205" xmlns="http://www.w3.org/2000/svg" xmlns:xlink="http://www.w3.org/1999/xlink" width="19.506" height="19.508" viewBox="0 0 19.506 19.508">
  <defs>
    <clipPath id="clip-path">
      <rect id="Retângulo_112" data-name="Retângulo 112" width="19.506" height="19.508" fill="#74ffa0"/>
    </clipPath>
  </defs>
  <g id="Grupo_204" data-name="Grupo 204" transform="translate(0 0)" clip-path="url(#clip-path)">
    <path id="Caminho_114" data-name="Caminho 114" d="M9.107,12.77V10.765c0-.147-.019-.279-.172-.342a.322.322,0,0,0-.378.117L5.727,13.371a.441.441,0,0,0-.131.418c.074.484.129.968.189,1.453a.31.31,0,0,1-.254.339.284.284,0,0,1-.33-.228v-.006c-.043-.218-.068-.442-.094-.661a.286.286,0,0,0-.5-.177q-.274.277-.552.549a.314.314,0,0,1-.441.068.161.161,0,0,1-.03-.025c-.133-.131-.116-.3.049-.471s.349-.351.527-.524a.307.307,0,0,0,.1-.34.291.291,0,0,0-.279-.194c-.177-.014-.354-.045-.53-.065-.237-.026-.378-.172-.35-.359s.2-.272.426-.241c.489.067.981.126,1.47.188a.322.322,0,0,0,.276-.111q1.449-1.449,2.9-2.895a.3.3,0,0,0,.094-.358.292.292,0,0,0-.31-.169H3.878a.4.4,0,0,0-.344.188c-.284.378-.579.745-.869,1.118-.139.177-.318.22-.46.111s-.154-.3-.008-.484l.349-.45A.29.29,0,0,0,2.3,9.568H1.542c-.241,0-.377-.116-.377-.308s.138-.3.383-.3h.673c.149,0,.283,0,.364-.166s-.009-.273-.1-.389-.2-.253-.3-.377c-.14-.183-.137-.355.008-.472a.311.311,0,0,1,.437.061.249.249,0,0,1,.022.033c.283.362.57.723.849,1.091a.488.488,0,0,0,.435.22c1.321-.007,2.65,0,3.976,0a.425.425,0,0,0,.222-.041.291.291,0,0,0,.1-.4.306.306,0,0,0-.072-.084q-.59-.595-1.184-1.186C6.414,6.686,5.854,6.13,5.3,5.565a.424.424,0,0,0-.4-.129c-.484.071-.968.128-1.454.188a.311.311,0,0,1-.347-.243.288.288,0,0,1,.226-.341l.012,0c.22-.042.442-.067.665-.095a.284.284,0,0,0,.255-.2.278.278,0,0,0-.078-.3c-.188-.188-.378-.378-.56-.566-.156-.158-.172-.326-.048-.457a.312.312,0,0,1,.441,0,.223.223,0,0,1,.03.035c.177.174.353.348.525.526A.314.314,0,0,0,4.9,4.1a.3.3,0,0,0,.2-.289c.012-.172.043-.342.062-.514.025-.244.16-.386.35-.361s.283.189.248.433c-.066.485-.124.969-.188,1.454a.323.323,0,0,0,.1.283L8.6,8.025a.284.284,0,0,0,.33.079.28.28,0,0,0,.178-.284V3.689a.377.377,0,0,0-.178-.314q-.567-.438-1.133-.88a.313.313,0,0,1-.125-.422A.441.441,0,0,1,7.7,2.035c.116-.145.291-.149.471-.01q.226.174.449.35a.291.291,0,0,0,.491-.242V1.372c0-.231.113-.365.3-.369s.309.133.311.372,0,.507,0,.761a.283.283,0,0,0,.155.283.289.289,0,0,0,.336-.047q.217-.155.42-.332a.331.331,0,0,1,.467-.033.316.316,0,0,1,.033.033c.115.148.067.323-.137.481-.358.284-.715.567-1.077.836a.46.46,0,0,0-.2.409c.007,1.336,0,2.673,0,4.01,0,.241.118.368.318.351a.326.326,0,0,0,.205-.115l2.888-2.888a.4.4,0,0,0,.111-.377c-.069-.489-.129-.981-.188-1.471a.31.31,0,0,1,.251-.341.283.283,0,0,1,.331.225v0c.043.22.069.442.094.661a.292.292,0,0,0,.3.28A.288.288,0,0,0,14.243,4q.267-.271.538-.537a.317.317,0,0,1,.442-.071.2.2,0,0,1,.03.023c.133.131.118.3-.045.471s-.357.361-.538.538a.293.293,0,0,0,.183.523c.183.016.364.043.547.066.226.028.361.172.334.355s-.2.274-.423.243c-.489-.067-.981-.127-1.47-.188a.32.32,0,0,0-.277.108Q12.11,6.985,10.655,8.437a.292.292,0,0,0-.082.343.284.284,0,0,0,.29.172h4.115a.39.39,0,0,0,.331-.176q.431-.562.869-1.118c.139-.179.316-.222.459-.116s.156.3.011.485c-.116.15-.234.3-.35.45a.29.29,0,0,0,.24.48h.778c.227,0,.361.119.36.306s-.136.3-.364.3h-.761a.292.292,0,0,0-.24.5c.121.154.243.306.361.464a.306.306,0,0,1-.01.431.321.321,0,0,1-.03.025A.309.309,0,0,1,16.2,10.9l-.008-.011c-.294-.378-.589-.754-.878-1.132a.448.448,0,0,0-.394-.194c-1.332.007-2.662,0-3.992,0-.154,0-.292.014-.357.177s.014.271.124.377c.894.891,1.793,1.775,2.671,2.683a.786.786,0,0,0,.789.262c.4-.075.809-.113,1.213-.164a.319.319,0,0,1,.365.241.3.3,0,0,1-.237.348l-.016,0c-.215.039-.432.062-.65.086a.283.283,0,0,0-.256.2.276.276,0,0,0,.077.3c.188.188.378.378.56.566.157.159.173.325.05.457a.313.313,0,0,1-.443,0,.284.284,0,0,1-.029-.033q-.266-.259-.525-.525a.309.309,0,0,0-.338-.115.3.3,0,0,0-.2.289c-.013.184-.041.365-.066.548-.028.216-.168.347-.348.324s-.284-.189-.252-.417c.067-.489.127-.981.189-1.47a.32.32,0,0,0-.1-.283q-1.461-1.461-2.92-2.926a.283.283,0,0,0-.33-.078.278.278,0,0,0-.178.283v4.13a.388.388,0,0,0,.189.324l1.116.87a.315.315,0,0,1,.121.428.277.277,0,0,1-.021.033c-.116.143-.292.147-.471.008-.15-.116-.3-.234-.449-.35a.3.3,0,0,0-.487.256v.761c0,.23-.114.365-.3.369s-.308-.135-.309-.378,0-.5,0-.744a.293.293,0,0,0-.5-.24c-.139.113-.283.22-.423.329-.188.146-.369.144-.485-.009s-.066-.32.111-.458c.354-.277.7-.558,1.065-.826a.522.522,0,0,0,.24-.477c-.012-.652,0-1.3,0-1.953" transform="translate(0.133 0.115)" fill="#74ffa0"/>
    <path id="Caminho_115" data-name="Caminho 115" d="M9.433,17.769a.5.5,0,0,1-.357-.142.619.619,0,0,1-.169-.458v-.745c.006-.064-.026-.1-.059-.109a.067.067,0,0,0-.06.022c-.107.089-.193.155-.277.22l-.17.131a.622.622,0,0,1-.467.152.5.5,0,0,1-.333-.2.525.525,0,0,1,.152-.77l.275-.216c.263-.207.526-.413.8-.613a.3.3,0,0,0,.148-.282c-.009-.478-.007-.946-.006-1.412l0-2.561c0-.121-.014-.128-.036-.137a.1.1,0,0,0-.108.039L5.908,13.551a.218.218,0,0,0-.071.212c.06.4.107.787.155,1.173l.037.3a.535.535,0,0,1-.437.585.51.51,0,0,1-.586-.408c-.043-.218-.07-.441-.1-.659,0-.067-.02-.088-.043-.1a.06.06,0,0,0-.069.017c-.195.2-.38.381-.566.564a.5.5,0,0,1-.329.187.535.535,0,0,1-.4-.1l-.05-.042a.527.527,0,0,1,.041-.789c.167-.172.353-.355.531-.529.049-.039.06-.076.049-.109s-.036-.055-.065-.041c-.131-.01-.241-.025-.351-.039l-.206-.027A.645.645,0,0,1,3,13.522a.5.5,0,0,1-.1-.383.543.543,0,0,1,.675-.428c.342.047.684.089,1.026.133l.443.056a.135.135,0,0,0,.078-.036L8.037,9.955c.051-.041.061-.079.048-.111a.069.069,0,0,0-.072-.037l-4.112,0a.169.169,0,0,0-.157.085c-.212.284-.419.547-.627.811l-.254.324a.538.538,0,0,1-.77.152.5.5,0,0,1-.2-.332.625.625,0,0,1,.147-.466l.347-.449a.072.072,0,0,0,.021-.082c-.013-.028-.036-.05-.064-.039H1.565a.538.538,0,0,1-.6-.53.531.531,0,0,1,.606-.523h.674c.145,0,.147-.006.164-.041s.018-.035-.069-.145l-.3-.383a.53.53,0,0,1,.041-.786.522.522,0,0,1,.4-.107.534.534,0,0,1,.353.207l.256.333c.206.262.413.525.615.791a.28.28,0,0,0,.244.133c.894-.006,1.778,0,2.662,0H7.936a.213.213,0,0,0,.126-.019.088.088,0,0,0,.008-.086l-.04-.039Q7.52,8.1,7,7.591l-.643-.643c-.4-.4-.8-.8-1.2-1.2a.2.2,0,0,0-.2-.068c-.406.06-.8.108-1.188.156l-.286.036a.539.539,0,0,1-.593-.418.509.509,0,0,1,.075-.388.515.515,0,0,1,.325-.22c.205-.039.4-.062.593-.086l.1-.012c.04,0,.062-.02.069-.043a.057.057,0,0,0-.012-.065c-.2-.2-.389-.389-.572-.578a.522.522,0,0,1-.051-.764.536.536,0,0,1,.761-.007l.052.06c.155.149.332.324.506.5a.112.112,0,0,0,.115.055A.073.073,0,0,0,4.9,3.838c.008-.127.022-.23.037-.333.009-.069.019-.139.026-.209a.65.65,0,0,1,.226-.458.478.478,0,0,1,.374-.1.488.488,0,0,1,.336.189.656.656,0,0,1,.106.5c-.038.272-.072.545-.107.818l-.082.634a.1.1,0,0,0,.032.088L8.78,7.891c.031.035.059.04.084.031a.059.059,0,0,0,.045-.06V3.712a.146.146,0,0,0-.071-.124L7.683,2.694A.526.526,0,0,1,7.5,1.989l.042-.066a.533.533,0,0,1,.786-.051l.517.386c.061-.037.068-.056.066-.076l0-.787A.535.535,0,0,1,9.423.8.546.546,0,0,1,9.79.942a.624.624,0,0,1,.173.453v.763c0,.049.009.072.031.085a.072.072,0,0,0,.081-.009c.165-.12.3-.226.429-.339a.546.546,0,0,1,.76-.035l.057.057a.542.542,0,0,1-.169.8l-.108.086c-.324.255-.646.51-.974.753a.244.244,0,0,0-.11.216c.006.9,0,1.8,0,2.686V7.8a.187.187,0,0,0,.027.123c.064,0,.086-.009.1-.029l2.9-2.9a.178.178,0,0,0,.052-.17c-.072-.508-.134-1-.193-1.493a.536.536,0,0,1,.43-.586.5.5,0,0,1,.592.4c.047.228.074.458.1.682a.089.089,0,0,0,.072.082.068.068,0,0,0,.05-.025c.195-.2.374-.379.556-.556a.5.5,0,0,1,.326-.189.54.54,0,0,1,.4.1l.046.037a.528.528,0,0,1-.031.793q-.269.276-.543.543c-.048.039-.052.084-.029.114a.07.07,0,0,0,.055.027c.156.012.291.03.427.048l.149.02a.618.618,0,0,1,.43.227.5.5,0,0,1,.1.382.547.547,0,0,1-.673.43c-.372-.051-.745-.1-1.119-.145l-.35-.043a.1.1,0,0,0-.082.035c-.978.981-1.948,1.951-2.918,2.919-.04.035-.048.067-.036.095a.062.062,0,0,0,.064.04H15a.135.135,0,0,0,.145-.076c.3-.388.588-.761.881-1.133a.539.539,0,0,1,.767-.156.5.5,0,0,1,.2.333.619.619,0,0,1-.144.466l-.374.51h.008l.08.062h.777a.6.6,0,0,1,.439.163.506.506,0,0,1,.145.367.533.533,0,0,1-.585.525h-.763c-.059-.007-.1.022-.1.06a.067.067,0,0,0,.02.057l.1.127c.094.119.187.238.279.359a.52.52,0,0,1-.033.726l-.051.043a.541.541,0,0,1-.407.087.532.532,0,0,1-.341-.225l-.124-.16c-.253-.324-.506-.648-.753-.973a.222.222,0,0,0-.205-.106c-.9,0-1.787,0-2.675,0h-1.33c-.135,0-.14.013-.149.036s-.018.046.074.135l.605.6c.694.69,1.388,1.379,2.07,2.085a.572.572,0,0,0,.577.2c.3-.057.6-.092.893-.127l.343-.042a.539.539,0,0,1,.612.41.527.527,0,0,1-.079.4.52.52,0,0,1-.334.218c-.218.04-.422.062-.625.085l-.057.007a.067.067,0,0,0-.068.042.06.06,0,0,0,.012.068l.056.056q.262.261.517.521a.525.525,0,0,1,.052.764.543.543,0,0,1-.384.163h0a.534.534,0,0,1-.378-.156l-.049-.057c-.157-.149-.333-.325-.507-.5-.045-.053-.079-.066-.115-.056a.072.072,0,0,0-.045.07c-.012.178-.033.333-.055.489l-.013.094a.546.546,0,0,1-.6.516.5.5,0,0,1-.338-.192.635.635,0,0,1-.107-.477c.05-.369.1-.739.143-1.108l.046-.36a.1.1,0,0,0-.032-.089c-.982-.983-1.955-1.958-2.929-2.935-.031-.036-.059-.041-.084-.031a.061.061,0,0,0-.045.06v4.149a.169.169,0,0,0,.081.135l1.139.885a.5.5,0,0,1,.226.3.527.527,0,0,1-.047.408l-.033.053a.538.538,0,0,1-.791.056l-.448-.35a.072.072,0,0,0-.08-.017c-.038.017-.053.043-.049.07v.788a.534.534,0,0,1-.518.592Zm-.6-1.9a.469.469,0,0,1,.069,0,.517.517,0,0,1,.443.581l0,.713a.208.208,0,0,0,.037.142c.071.014.125.013.125-.131v-.76a.5.5,0,0,1,.3-.5.5.5,0,0,1,.557.075l.439.341c.113.087.146.047.163.027a.1.1,0,0,0-.037-.125l-1.144-.889a.594.594,0,0,1-.275-.495V10.716a.5.5,0,0,1,.322-.491.5.5,0,0,1,.579.144c.96.963,1.934,1.938,2.908,2.91a.54.54,0,0,1,.167.471l-.046.357c-.046.371-.092.742-.144,1.113a.2.2,0,0,0,.02.146c.109.031.133-.07.138-.113l.013-.1c.02-.147.04-.293.051-.44a.512.512,0,0,1,.358-.484.531.531,0,0,1,.585.195c.152.152.325.325.5.5.06.065.128.067.158.035.014-.016.045-.047-.051-.144-.167-.173-.34-.344-.511-.517l-.048-.047a.493.493,0,0,1-.128-.535.506.506,0,0,1,.455-.344l.043-.006c.193-.02.386-.041.576-.077a.088.088,0,0,0,.076-.09.094.094,0,0,0-.109-.062l-.358.043c-.285.033-.57.067-.852.12a1,1,0,0,1-1-.339c-.667-.691-1.36-1.378-2.052-2.066l-.605-.6a.546.546,0,0,1-.173-.618.539.539,0,0,1,.563-.316l1.332,0c.887,0,1.774,0,2.661,0a.676.676,0,0,1,.578.29c.241.314.492.637.745.96l.126.162c.033.05.058.058.071.06a.091.091,0,0,0,.065-.013.083.083,0,0,0,0-.117c-.106-.138-.2-.255-.29-.371l-.085-.108a.5.5,0,0,1-.129-.4.515.515,0,0,1,.569-.453h.735c.142,0,.142-.053.142-.08a.128.128,0,0,0-.138-.082H16.56a.522.522,0,0,1-.361-.128.512.512,0,0,1-.046-.723l.341-.439a.187.187,0,0,0,.055-.134c-.072-.071-.133-.016-.173.038-.292.372-.581.744-.869,1.118A.6.6,0,0,1,15,9.2H10.885a.488.488,0,0,1-.495-.309.512.512,0,0,1,.146-.6l2.893-2.894a.54.54,0,0,1,.459-.173l.353.043c.374.048.749.095,1.123.146.039.007.163.017.173-.055a.153.153,0,0,0-.14-.1l-.153-.02c-.129-.018-.259-.035-.388-.046h0a.5.5,0,0,1-.382-.195.517.517,0,0,1,.082-.724c.163-.16.342-.339.518-.518.1-.1.067-.138.047-.158a.109.109,0,0,0-.135.02c-.2.206-.382.383-.56.564a.5.5,0,0,1-.364.174.491.491,0,0,1-.37-.136.51.51,0,0,1-.164-.358c-.023-.2-.048-.413-.091-.625a.065.065,0,0,0-.071-.056.087.087,0,0,0-.07.1c.058.488.118.977.188,1.464a.623.623,0,0,1-.178.569L10.417,8.194a.539.539,0,0,1-.331.177.5.5,0,0,1-.4-.12A.583.583,0,0,1,9.514,7.8l0-1.337c0-.891,0-1.782,0-2.672a.683.683,0,0,1,.3-.594c.318-.235.635-.487.955-.74l.11-.087c.1-.075.128-.131.1-.17a.111.111,0,0,0-.156.01,5.308,5.308,0,0,1-.46.368.5.5,0,0,1-.569.062.507.507,0,0,1-.272-.5V1.4a.214.214,0,0,0-.037-.138c-.074-.013-.126-.011-.126.133v.76a.489.489,0,0,1-.144.391.51.51,0,0,1-.359.157.489.489,0,0,1-.367-.145l-.43-.334c-.113-.086-.145-.048-.162-.027a.093.093,0,0,0,.033.126l1.162.9a.585.585,0,0,1,.265.487V7.843a.5.5,0,0,1-.323.492.508.508,0,0,1-.578-.144L5.542,5.286a.536.536,0,0,1-.167-.471l.081-.631q.052-.411.107-.822A.238.238,0,0,0,5.546,3.2l-.08-.01a.237.237,0,0,0-.059.155c-.008.075-.018.149-.028.224-.013.094-.026.188-.033.283a.506.506,0,0,1-.358.484A.538.538,0,0,1,4.4,4.14c-.153-.156-.328-.329-.5-.5-.066-.07-.123-.069-.158-.035-.013.016-.045.048.05.144.183.189.371.377.559.565a.491.491,0,0,1,.129.527.5.5,0,0,1-.452.349L3.941,5.2c-.184.022-.367.045-.547.079a.076.076,0,0,0-.062.08.082.082,0,0,0,.1.067l.289-.036c.388-.047.776-.095,1.161-.153a.644.644,0,0,1,.6.2c.392.4.791.8,1.192,1.2l.644.643q.515.513,1.027,1.028a.428.428,0,0,1,.106.127.515.515,0,0,1-.182.705.691.691,0,0,1-.354.071H6.61c-.884,0-1.766,0-2.647,0a.724.724,0,0,1-.622-.32c-.191-.253-.4-.513-.6-.772l-.238-.3c-.053-.077-.111-.084-.149-.053-.017.013-.053.043.035.157l.3.375a.527.527,0,0,1-.438.916H1.571c-.162,0-.162.05-.162.077s0,.085.155.085h.761a.511.511,0,0,1,.408.851l-.338.437a.214.214,0,0,0-.057.135c.075.074.139.008.173-.036l.255-.325c.206-.262.411-.523.611-.789a.624.624,0,0,1,.52-.277H7.979a.512.512,0,0,1,.513.3.522.522,0,0,1-.163.626L5.455,13.167A.532.532,0,0,1,5,13.341l-.45-.056c-.343-.043-.687-.087-1.03-.134-.062-.01-.165-.013-.175.052a.162.162,0,0,0,.154.106l.216.028c.1.013.2.027.308.036h.008a.506.506,0,0,1,.462.34.529.529,0,0,1-.181.593c-.155.153-.338.333-.5.5-.1.107-.071.139-.052.158a.107.107,0,0,0,.075.021.1.1,0,0,0,.06-.038c.208-.208.392-.391.574-.574a.5.5,0,0,1,.548-.135.507.507,0,0,1,.334.464c.026.206.05.417.091.622a.061.061,0,0,0,.071.058.087.087,0,0,0,.072-.095l-.037-.3c-.047-.382-.094-.764-.15-1.144a.654.654,0,0,1,.2-.616L8.423,10.4a.533.533,0,0,1,.614-.168.54.54,0,0,1,.316.552l0,2.562c0,.464,0,.927.006,1.391a.74.74,0,0,1-.342.67c-.253.187-.513.391-.771.6l-.277.217c-.116.09-.087.128-.071.148.06.031.108.017.172-.032l.173-.134c.082-.064.165-.127.246-.193a.487.487,0,0,1,.353-.142" transform="translate(0.11 0.092)" fill="#74ffa0"/>
  </g>
</svg>
