<svg xmlns="http://www.w3.org/2000/svg" width="29.374" height="30.471" viewBox="0 0 29.374 30.471">
  <g id="Grupo_129" data-name="Grupo 129" transform="translate(1842.88 -200.034)">
    <path id="Caminho_16" data-name="Caminho 16" d="M-1815.936,230.5h-24.514a5.987,5.987,0,0,1-1.075-.47,3.2,3.2,0,0,1-1.355-2.823q0-10.514,0-21.027a2.712,2.712,0,0,1,2.82-2.834c.664,0,1.328,0,1.993,0,.1,0,.21-.011.335-.017,0-.676,0-1.32,0-1.963a1.134,1.134,0,0,1,.7-1.11,2.341,2.341,0,0,1,.856-.2c.723-.028,1.447-.014,2.171-.008a1.277,1.277,0,0,1,1.4,1.428c0,.613,0,1.226,0,1.857h8.808c0-.66,0-1.3,0-1.946a1.232,1.232,0,0,1,1.254-1.332c.822-.026,1.647-.031,2.468,0a1.359,1.359,0,0,1,1.412,1.49c0,.218,0,.436,0,.654v1.15h.363c.684,0,1.368-.007,2.052,0a2.7,2.7,0,0,1,2.728,2.713q.01,10.632,0,21.265a3.439,3.439,0,0,1-.514,1.835A2.938,2.938,0,0,1-1815.936,230.5Zm-25.469-18.7v.337q0,7.54,0,15.079c0,.109,0,.218.005.327a1.449,1.449,0,0,0,1.455,1.485q11.75,0,23.5.005a1.26,1.26,0,0,0,1.284-.862,2.723,2.723,0,0,0,.171-.953q.016-7.539.007-15.079V211.8Zm26.423-1.492c0-1.423,0-2.81,0-4.2a1.24,1.24,0,0,0-1.31-1.3q-1.041,0-2.082,0c-.085,0-.17.013-.281.022,0,.208,0,.395,0,.581a1.486,1.486,0,0,1-1.564,1.594c-.733.01-1.467.008-2.2,0a1.342,1.342,0,0,1-1.369-1.377c0-.265,0-.529,0-.8h-8.809c0,.307.009.593,0,.879a1.325,1.325,0,0,1-1.238,1.291c-.822.023-1.646.027-2.468,0a1.452,1.452,0,0,1-1.426-1.514c0-.215,0-.43,0-.66-.9,0-1.761-.041-2.617.013a1.171,1.171,0,0,0-1.057,1.231q0,1.992,0,3.985c0,.084.013.169.02.255Zm-7.389-8.781v4h2.231v-4Zm-11.718.005h-2.059v4h2.059Z" transform="translate(0 0)" fill="#0da63e"/>
    <path id="Caminho_17" data-name="Caminho 17" d="M-1713.659,436.584c.16-.891.27-1.821.507-2.718a1.44,1.44,0,0,0-.545-1.706c-.665-.528-1.239-1.169-1.859-1.754a.806.806,0,0,1-.289-.876.8.8,0,0,1,.738-.511c1.068-.157,2.134-.328,3.2-.469a.524.524,0,0,0,.457-.342c.469-.972.957-1.934,1.428-2.9a.806.806,0,0,1,.735-.556.8.8,0,0,1,.736.554c.483,1,.984,1.986,1.469,2.983a.408.408,0,0,0,.356.254c1.1.154,2.195.322,3.292.486a.773.773,0,0,1,.718.532.8.8,0,0,1-.294.847c-.782.746-1.555,1.5-2.343,2.239a.513.513,0,0,0-.175.539c.2,1.04.4,2.082.561,3.128a1.284,1.284,0,0,1-.089.736c-.183.363-.607.421-1.043.2-.959-.495-1.919-.987-2.866-1.5a.6.6,0,0,0-.653.013q-1.453.777-2.921,1.527A.74.74,0,0,1-1713.659,436.584Zm1.736-1.262c.757-.408,1.448-.771,2.13-1.15a.965.965,0,0,1,1.011-.007c.623.346,1.253.68,1.881,1.017.071.038.149.064.252.109a18.945,18.945,0,0,0-.33-1.909,1.553,1.553,0,0,1,.585-1.795,12.9,12.9,0,0,0,1.259-1.372c-.009.035-.092.009-.176,0-.726-.1-1.451-.211-2.178-.3a.767.767,0,0,1-.642-.458c-.335-.684-.679-1.365-1.02-2.046-.037-.073-.083-.141-.142-.241-.4.793-.779,1.542-1.149,2.3a.718.718,0,0,1-.559.436c-.3.046-.608.084-.912.127l-1.6.232-.044.08a2.1,2.1,0,0,1,.238.172c.517.492,1.029.99,1.546,1.481a.833.833,0,0,1,.268.859c-.028.115-.041.234-.061.351Z" transform="translate(-118.91 -211.058)" fill="#0da63e"/>
  </g>
</svg>
