<svg id="Grupo_133" data-name="Grupo 133" xmlns="http://www.w3.org/2000/svg" xmlns:xlink="http://www.w3.org/1999/xlink" width="29.283" height="31.062" viewBox="0 0 29.283 31.062">
  <defs>
    <clipPath id="clip-path">
      <rect id="Retângulo_90" data-name="Retângulo 90" width="29.283" height="31.062" fill="#0da63e"/>
    </clipPath>
  </defs>
  <g id="Grupo_132" data-name="Grupo 132" clip-path="url(#clip-path)">
    <path id="Caminho_98" data-name="Caminho 98" d="M208.2,115.061c-.516-.516-.976-.978-1.439-1.438a1.016,1.016,0,0,1-.327-.565.958.958,0,0,1,.474-1.029.97.97,0,0,1,1.149.148c.038.034.072.07.108.106q1.48,1.48,2.96,2.96a.988.988,0,0,1,.007,1.562q-1.488,1.493-2.982,2.981a.973.973,0,0,1-1.45.083.988.988,0,0,1,.074-1.452c.453-.456.909-.909,1.415-1.414H207.8q-4.2,0-8.4,0a.994.994,0,0,1-1.094-.9.96.96,0,0,1,1-1.04q2.593-.005,5.187,0h3.7" transform="translate(-182.228 -102.83)" fill="#0da63e"/>
    <path id="Caminho_99" data-name="Caminho 99" d="M21.823,16.331a.886.886,0,0,0-.688-.761.958.958,0,0,0-1.221,1c-.008,1.183,0,4.876,0,6.059a1.354,1.354,0,0,1-1.5,1.5c-1.527,0-3.053-.008-4.58.007-.279,0-.345-.071-.344-.346.009-4.853,0-9.706.012-14.559a3.426,3.426,0,0,0-1.876-3.241C9.369,4.719,7.134,3.407,4.89,2.11c-.07-.04-.163-.061-.2-.168H18.381a1.357,1.357,0,0,1,1.53,1.527c0,1.325,0,4.7,0,6.022a1.16,1.16,0,0,0,.135.642.986.986,0,0,0,1.07.447.975.975,0,0,0,.733-.992c.007-1.415.029-4.88,0-6.3A3.246,3.246,0,0,0,18.439,0Q10.932,0,3.425,0A3.257,3.257,0,0,0,.006,3.376Q-.008,13.537,0,23.7a3.2,3.2,0,0,0,1.725,2.954C3.522,27.682,5.3,28.728,7.1,29.75a9.194,9.194,0,0,0,2.7,1.311h.849c.043-.053.108-.047.166-.058a3.249,3.249,0,0,0,2.6-2.526,10.222,10.222,0,0,0,.07-2.117c0-.241.067-.295.3-.293q2.366.016,4.732,0a3.223,3.223,0,0,0,3.307-3.107c.058-1.1.021-2.2.023-3.305,0-.272.01-3.059-.028-3.327M11.555,27.624a1.353,1.353,0,0,1-1.085,1.467,1.4,1.4,0,0,1-1.037-.229L4.9,26.244c-.707-.409-1.405-.835-2.124-1.221a1.484,1.484,0,0,1-.839-1.45c.015-1.739.005-3.478.005-5.217V13.534q0-5,0-10.009c0-.263-.064-.612.134-.742.138-.091.407.184.613.3,2.683,1.544,5.361,3.1,8.048,4.635a1.486,1.486,0,0,1,.82,1.4q-.01,9.251,0,18.5" transform="translate(0 0)" fill="#0da63e"/>
  </g>
</svg>
