<svg id="Grupo_131" data-name="Grupo 131" xmlns="http://www.w3.org/2000/svg" xmlns:xlink="http://www.w3.org/1999/xlink" width="29.374" height="28.686" viewBox="0 0 29.374 28.686">
  <defs>
    <clipPath id="clip-path">
      <rect id="Retângulo_89" data-name="Retângulo 89" width="29.374" height="28.686" fill="#0da63e"/>
    </clipPath>
  </defs>
  <g id="Grupo_130" data-name="Grupo 130" clip-path="url(#clip-path)">
    <path id="Caminho_97" data-name="Caminho 97" d="M29.37,11.218A4.315,4.315,0,0,0,27.762,7.9a15.135,15.135,0,0,0-1.7-1.165.593.593,0,0,1-.306-.565c.015-.41,0-.821,0-1.232a2.846,2.846,0,0,0-2.908-2.9q-1.762,0-3.524,0a1.07,1.07,0,0,1-.645-.19c-.6-.415-1.218-.789-1.82-1.2a4,4,0,0,0-4.379,0c-.6.4-1.189.8-1.793,1.184a1.282,1.282,0,0,1-.728.2q-1.762-.01-3.524,0a2.852,2.852,0,0,0-2.853,2.84c0,.449-.005.9,0,1.347A.51.51,0,0,1,3.33,6.7c-.433.281-.854.579-1.29.855A4.058,4.058,0,0,0,.746,8.83,3.637,3.637,0,0,0,.03,10.793c0,.011,0,.021,0,.032l.022,0a.3.3,0,0,1-.05.3V26.364a.129.129,0,0,1,.026.049,2.586,2.586,0,0,0,2.563,2.27q12.092,0,24.184,0a2.126,2.126,0,0,0,.973-.2,2.665,2.665,0,0,0,1.629-2.541q-.009-7.364,0-14.728M15.517,2.1H13.831a1.97,1.97,0,0,1,1.686,0M5.5,6.869c0-.64,0-1.28,0-1.92a.923.923,0,0,1,1-.994q4.083,0,8.166,0H22.78a.937.937,0,0,1,1.061,1.051q0,4.671.006,9.341a.354.354,0,0,1-.225.367q-2.771,1.45-5.534,2.917a.275.275,0,0,1-.374-.033c-.283-.256-.585-.491-.88-.732a3.221,3.221,0,0,0-4.135-.006c-.333.271-.67.538-.994.82a.258.258,0,0,1-.348.036Q8.53,16.189,5.693,14.678a.337.337,0,0,1-.194-.36q.007-3.725,0-7.45m-3.432,3.5A3.323,3.323,0,0,1,3.652,8.812v4.762l-1.718-.916c-.049-.026-.1-.051-.1-.123a5.274,5.274,0,0,1,.236-2.165M1.845,25.758V14.689l8.161,4.379-8.161,6.69m1.612,1.051,2.176-1.784q4.075-3.341,8.15-6.683a1.4,1.4,0,0,1,1.943-.01L25.8,26.648c.051.042.1.086.184.161ZM27.5,25.679,19.416,19,27.5,14.736Zm.009-13.128c0,.094-.047.133-.119.171-.555.291-1.109.584-1.694.892V8.82a3.022,3.022,0,0,1,1.776,2.217,10.064,10.064,0,0,1,.037,1.515" transform="translate(0 0.001)" fill="#0da63e"/>
  </g>
</svg>
