<svg xmlns="http://www.w3.org/2000/svg" width="30.719" height="30.719" viewBox="0 0 30.719 30.719">
  <g id="Grupo_127" data-name="Grupo 127" transform="translate(671 -187.433)">
    <path id="Caminho_11" data-name="Caminho 11" d="M-642.2,210.109q-1.11-3.43-2.222-6.86a1.851,1.851,0,0,0-1.939-1.416l-2.308,0a.559.559,0,0,1-.09-.021c.058-.088.107-.169.163-.245a8.588,8.588,0,0,0,1.709-6.345,8.632,8.632,0,0,0-4.053-6.412,8.378,8.378,0,0,0-3.958-1.334.723.723,0,0,1-.142-.041h-1.26c-.461.081-.931.127-1.381.249a8.594,8.594,0,0,0-6.607,6.914,8.448,8.448,0,0,0,1.583,6.942l.212.294h-.354c-.69,0-1.379,0-2.069,0a1.852,1.852,0,0,0-1.942,1.413q-1.712,5.281-3.421,10.563-.363,1.121-.721,2.244v.6a7.74,7.74,0,0,0,.419.805,1.94,1.94,0,0,0,1.141.695h27.6a2.058,2.058,0,0,0,1.56-1.5v-.6Q-641.24,213.081-642.2,210.109Zm-4.184-7.077c.5,0,.668.124.826.608.151.464.3.929.463,1.429l-8.773,3.289c.112-.156.169-.241.231-.321q1.872-2.4,3.741-4.8a.468.468,0,0,1,.422-.208C-648.444,203.037-647.414,203.031-646.384,203.032Zm-16.774-7.946a7.3,7.3,0,0,1,5.271-6.091,7.2,7.2,0,0,1,7.223,1.531,7.338,7.338,0,0,1,2.633,6.109,7.608,7.608,0,0,1-1.722,4.481q-2.89,3.678-5.757,7.374c-.035.045-.076.086-.136.153-.234-.3-.455-.577-.674-.859-1.824-2.342-3.675-4.663-5.463-7.032A7.108,7.108,0,0,1-663.158,195.086Zm-4.705,15.154q1.07-3.3,2.143-6.607c.156-.479.325-.6.831-.6,1.04,0,2.08,0,3.119.006a.465.465,0,0,1,.324.14q2.4,3.053,4.783,6.118a.9.9,0,0,1,.05.093c-1.013.38-2.011.755-3.011,1.127a.527.527,0,0,1-.178.013h-8.008c-.03,0-.059-.006-.128-.014C-667.913,210.419-667.892,210.329-667.864,210.241Zm19.591,6.71q-10.394,0-20.788,0a.64.64,0,0,1-.678-.909q.281-.877.565-1.754c.029,0,.058,0,.088,0,.9.009,6.592,0,7.492,0,.4,0,.8-.027,1.2.005a6.529,6.529,0,0,0,3.026-.547c1.684-.68,3.4-1.287,5.1-1.924.083-.031.167-.059.265-.093l3.948,5.183A1.66,1.66,0,0,1-648.273,216.95Zm1.867-.01c-.1-.005-.216-.124-.288-.218q-2.223-2.906-4.435-5.819c-.422-.555-.533-.587-1.189-.341q-3.238,1.215-6.478,2.424a1.728,1.728,0,0,1-.582.1c-1.54.008-7.75,0-9.409,0l.443-1.364h.372c2.7,0,5.4,0,8.1-.007a2.491,2.491,0,0,0,.843-.155q7.028-2.621,14.048-5.26c.075-.028.15-.054.255-.092l.436,1.328c-.254.1-.492.193-.732.282l-4.346,1.629c-.806.3-.9.626-.381,1.3q2.28,2.957,4.558,5.914c.058.076.111.156.2.28C-645.5,216.951-645.952,216.964-646.406,216.941Zm4.127.01a2.836,2.836,0,0,1-1.151-.047c-.316-.155-.506-.572-.743-.88q-2.051-2.657-4.1-5.318l-.224-.293,4.575-1.716.784,2.419q.784,2.42,1.569,4.84C-641.362,216.592-641.618,216.951-642.279,216.951Z" transform="translate(0 0)" fill="#0da63e"/>
    <path id="Caminho_12" data-name="Caminho 12" d="M-495.84,258.845a5.17,5.17,0,0,0,5.17-5.136,5.182,5.182,0,0,0-5.163-5.179,5.18,5.18,0,0,0-5.155,5.157A5.169,5.169,0,0,0-495.84,258.845Zm.017-9.116a3.977,3.977,0,0,1,3.953,3.982,3.967,3.967,0,0,1-3.966,3.935,3.965,3.965,0,0,1-3.952-3.977A3.976,3.976,0,0,1-495.823,249.729Z" transform="translate(-159.811 -57.43)" fill="#0da63e"/>
  </g>
</svg>
