<svg xmlns="http://www.w3.org/2000/svg" width="14.705" height="11.423" viewBox="0 0 14.705 11.423">
  <g id="Grupo_15" data-name="Grupo 15" transform="translate(-384.827 739.172)">
    <path id="Caminho_10" data-name="Caminho 10" d="M384.827-733.177a1.548,1.548,0,0,1,.531-.829c.106-.1.2-.2.305-.3a1.119,1.119,0,0,1,1.639,0q1.267,1.26,2.528,2.527c.027.027.055.053.093.089.042-.039.083-.076.121-.115L397-738.761a1.133,1.133,0,0,1,1.742,0l.4.4a1.13,1.13,0,0,1,0,1.713q-1.191,1.194-2.385,2.386l-6.212,6.212a.77.77,0,0,1-1.233,0q-1.969-1.969-3.94-3.937a1.724,1.724,0,0,1-.543-.838Z" fill="#0da63e"/>
  </g>
</svg>
