<svg xmlns="http://www.w3.org/2000/svg" width="16" height="16" viewBox="0 0 16 16">
  <path id="Caminho_56" data-name="Caminho 56" d="M-1400.4,819.609c-.075-.088-.15-.175-.231-.256q-2.134-2.137-4.271-4.271a6.183,6.183,0,0,0,1.114-4.075A6.209,6.209,0,0,0-1406,806.76a6.163,6.163,0,0,0-8.325.4,6.164,6.164,0,0,0-.383,8.314,6.21,6.21,0,0,0,4.249,2.214,6.183,6.183,0,0,0,4.074-1.115q2.134,2.137,4.271,4.271c.082.082.171.158.26.234l.3.258h.77l.651-.65v-.772Zm-5.468-8.073a4.056,4.056,0,0,1-1.215,2.882,4.034,4.034,0,0,1-2.852,1.184h-.029a4.072,4.072,0,0,1-2.908-1.227,4.042,4.042,0,0,1-1.162-2.91,4.092,4.092,0,0,1,4.078-4.029h.052A4.094,4.094,0,0,1-1405.867,811.537Z" transform="translate(1416.14 -805.33)" fill="#707070"/>
</svg>
