<svg xmlns="http://www.w3.org/2000/svg" width="32.935" height="33.002" viewBox="0 0 32.935 33.002">
  <g id="Grupo_29" data-name="Grupo 29" transform="translate(1239.976 -200.034)">
    <path id="Caminho_13" data-name="Caminho 13" d="M-1207.189,206.278h-2.554a.149.149,0,0,1-.148-.149q0-.465,0-.925c0-.914,0-1.778,0-2.66a2.4,2.4,0,0,0-2.492-2.506c-7.086-.006-14.565-.006-22.23,0a2.421,2.421,0,0,0-2.509,2.525c0,.5,0,1,0,1.491q0,.334,0,.667v1.446a.148.148,0,0,1-.148.148h-2.554a.148.148,0,0,0-.148.148v6.768a.148.148,0,0,0,.148.148h2.544a.148.148,0,0,1,.148.148l.01,10.486q0,.443,0,.885c0,.6,0,1.22,0,1.83a2.4,2.4,0,0,0,2.152,2.435,3.6,3.6,0,0,0,.582.012h0l.156.15q0,.311,0,.621c0,.458,0,.932.008,1.4a1.626,1.626,0,0,0,1.659,1.68c.52.007,1.055.01,1.6.01.512,0,1.036,0,1.566-.009a1.656,1.656,0,0,0,1.689-1.7c.009-.394.007-.794,0-1.181,0-.175,0-.351,0-.526v-.27a.148.148,0,0,1,.148-.148h8.094a.148.148,0,0,1,.148.149q0,.21,0,.419c0,.506,0,1.029,0,1.541a1.647,1.647,0,0,0,1.707,1.714c1.113.011,2.138.011,3.134,0a1.642,1.642,0,0,0,1.677-1.7c0-.434,0-.876,0-1.3q0-.289,0-.578v-.125a.148.148,0,0,1,.153-.148h.016a3.521,3.521,0,0,0,.595-.013,2.429,2.429,0,0,0,2.135-2.556q.007-4.7.009-9.393l0-3.833v-.011h2.692a.148.148,0,0,0,.148-.148v-6.793A.148.148,0,0,0-1207.189,206.278Zm-1.071,1.41v4.3a.148.148,0,0,1-.148.148h-1.3a.148.148,0,0,1-.148-.148v-4.3a.148.148,0,0,1,.148-.148h1.3A.148.148,0,0,1-1208.26,207.688Zm-5.773,23.748a.358.358,0,0,1-.4.359c-1.237.011-2.262.01-3.225,0a.41.41,0,0,1-.42-.459c-.008-.521-.006-1.035,0-1.579q0-.2,0-.4a.148.148,0,0,1,.148-.148h3.762a.148.148,0,0,1,.148.148q0,.2,0,.406C-1214.022,230.311-1214.019,230.88-1214.034,231.436Zm-15.047-2.234a.148.148,0,0,1,.148.148V230.8c0,1.007,0,1.007-.995,1.007h-.757q-.836,0-1.672,0c-.54,0-.642-.106-.643-.657,0-.474,0-.948,0-1.433v-.363a.148.148,0,0,1,.148-.148Zm17.961-25.582v1.052a.148.148,0,0,1-.148.148h-24.477a.148.148,0,0,1-.148-.148q0-.26,0-.517c0-.617-.009-1.2.011-1.793a1.148,1.148,0,0,1,1.118-1.1c.074,0,.148,0,.226,0h22.053a1.216,1.216,0,0,1,1.368,1.371Q-1211.119,203.127-1211.12,203.62Zm-24.746,13.587V206.245a.148.148,0,0,1,.148-.148h11.423a.148.148,0,0,1,.148.148v10.962a.148.148,0,0,1-.148.148h-11.423A.148.148,0,0,1-1235.866,217.207Zm13-.013V206.251a.148.148,0,0,1,.148-.148h11.422a.148.148,0,0,1,.148.148v10.942a.148.148,0,0,1-.148.148h-11.422A.148.148,0,0,1-1222.862,217.194Zm11.742,9.368a1.231,1.231,0,0,1-1.385,1.393h-22.016a1.216,1.216,0,0,1-1.375-1.368q0-2.777,0-5.555v-2.27a.148.148,0,0,1,.148-.148h24.478a.148.148,0,0,1,.148.142c0,.028,0,.055,0,.082Q-1211.119,222.7-1211.12,226.562Zm-26.044-18.866v4.293a.148.148,0,0,1-.148.148h-1.29a.148.148,0,0,1-.148-.148V207.7a.148.148,0,0,1,.148-.148h1.29A.148.148,0,0,1-1237.165,207.7Z" fill="#0da63e"/>
    <path id="Caminho_14" data-name="Caminho 14" d="M-1135.417,514.458h-.012a2.5,2.5,0,0,0-1.777.739,2.527,2.527,0,0,0-.75,1.805,2.506,2.506,0,0,0,2.505,2.533h.017a2.539,2.539,0,0,0,1.807-.748,2.514,2.514,0,0,0,.744-1.806A2.551,2.551,0,0,0-1135.417,514.458Zm-.021,3.855a1.31,1.31,0,0,1-1.294-1.318,1.322,1.322,0,0,1,1.307-1.307h.007a1.292,1.292,0,0,1,.913.382,1.3,1.3,0,0,1,.392.92,1.312,1.312,0,0,1-.392.941A1.29,1.29,0,0,1-1135.439,518.313Z" transform="translate(-95.304 -293.729)" fill="#0da63e"/>
    <path id="Caminho_15" data-name="Caminho 15" d="M-916.158,514.459h-.012a2.551,2.551,0,0,0-2.539,2.506,2.512,2.512,0,0,0,.722,1.8,2.519,2.519,0,0,0,1.791.768h.025a2.511,2.511,0,0,0,2.535-2.516,2.522,2.522,0,0,0-.732-1.806A2.514,2.514,0,0,0-916.158,514.459Zm.9,3.482a1.283,1.283,0,0,1-.931.373,1.316,1.316,0,0,1-1.292-1.323,1.322,1.322,0,0,1,1.316-1.3h0a1.288,1.288,0,0,1,.915.385,1.3,1.3,0,0,1,.386.923A1.317,1.317,0,0,1-915.256,517.941Z" transform="translate(-300.12 -293.73)" fill="#0da63e"/>
    <rect id="Retângulo_32" data-name="Retângulo 32" width="5.997" height="1.179" rx="0.59" transform="translate(-1226.506 222.687)" fill="#0da63e"/>
  </g>
</svg>
