<svg xmlns="http://www.w3.org/2000/svg" width="32.935" height="34.165" viewBox="0 0 32.935 34.165">
  <g id="Grupo_30" data-name="Grupo 30" transform="translate(1842.88 -200.034)">
    <path id="Caminho_16" data-name="Caminho 16" d="M-1812.67,234.2h-27.486a6.708,6.708,0,0,1-1.205-.526,3.584,3.584,0,0,1-1.519-3.165q0-11.788,0-23.576a3.041,3.041,0,0,1,3.162-3.177c.745,0,1.49,0,2.234,0,.118,0,.235-.012.376-.019,0-.758,0-1.48,0-2.2a1.271,1.271,0,0,1,.79-1.245,2.625,2.625,0,0,1,.959-.229c.81-.032,1.623-.016,2.434-.009a1.432,1.432,0,0,1,1.575,1.6c0,.687,0,1.375,0,2.083h9.875c0-.74,0-1.461,0-2.181a1.382,1.382,0,0,1,1.406-1.493c.922-.029,1.846-.035,2.768,0a1.523,1.523,0,0,1,1.583,1.67q0,.367,0,.734v1.289h.407c.767,0,1.534-.008,2.3,0a3.022,3.022,0,0,1,3.059,3.042q.012,11.922,0,23.843a3.854,3.854,0,0,1-.577,2.058A3.294,3.294,0,0,1-1812.67,234.2Zm-28.556-20.969v.378q0,8.454,0,16.907c0,.122,0,.245.006.367a1.625,1.625,0,0,0,1.631,1.665q13.174,0,26.349.006a1.413,1.413,0,0,0,1.44-.967,3.055,3.055,0,0,0,.192-1.068q.017-8.454.008-16.907v-.38Zm29.627-1.672c0-1.6,0-3.151,0-4.706a1.39,1.39,0,0,0-1.469-1.46q-1.167,0-2.334,0c-.1,0-.19.014-.315.025,0,.234,0,.443,0,.652a1.666,1.666,0,0,1-1.754,1.788c-.822.011-1.645.009-2.468,0a1.5,1.5,0,0,1-1.535-1.544c0-.3,0-.593,0-.9h-9.877c0,.344.01.665,0,.986a1.486,1.486,0,0,1-1.388,1.448c-.922.025-1.846.03-2.767,0a1.628,1.628,0,0,1-1.6-1.7c0-.241,0-.482,0-.74-1.008,0-1.974-.046-2.934.015a1.313,1.313,0,0,0-1.185,1.381q0,2.234,0,4.468c0,.095.015.19.023.285Zm-8.284-9.845v4.48h2.5v-4.48Zm-13.138.006h-2.309V206.2h2.309Z" transform="translate(0)" fill="#0da63e"/>
    <path id="Caminho_17" data-name="Caminho 17" d="M-1713.389,438.019c.179-1,.3-2.042.569-3.048a1.614,1.614,0,0,0-.611-1.913c-.745-.592-1.389-1.311-2.085-1.967a.9.9,0,0,1-.324-.982.892.892,0,0,1,.827-.573c1.2-.176,2.393-.367,3.592-.526a.588.588,0,0,0,.512-.384c.526-1.09,1.073-2.169,1.6-3.257a.9.9,0,0,1,.824-.623.9.9,0,0,1,.825.621c.542,1.118,1.1,2.227,1.647,3.345a.457.457,0,0,0,.4.285c1.231.173,2.461.361,3.691.545a.867.867,0,0,1,.8.6.9.9,0,0,1-.329.95c-.876.836-1.744,1.683-2.627,2.511a.576.576,0,0,0-.2.6c.225,1.166.443,2.334.629,3.507a1.439,1.439,0,0,1-.1.825c-.206.407-.68.472-1.169.22-1.075-.555-2.152-1.107-3.213-1.687a.676.676,0,0,0-.732.014q-1.63.871-3.275,1.712A.829.829,0,0,1-1713.389,438.019Zm1.947-1.415c.849-.457,1.624-.865,2.389-1.289a1.082,1.082,0,0,1,1.133-.008c.7.388,1.4.762,2.109,1.14.08.043.167.072.283.122a21.191,21.191,0,0,0-.37-2.141,1.742,1.742,0,0,1,.656-2.012,14.466,14.466,0,0,0,1.412-1.538c-.01.039-.1.01-.2,0-.814-.116-1.626-.236-2.442-.339a.861.861,0,0,1-.72-.513c-.376-.767-.761-1.53-1.144-2.294-.042-.082-.093-.159-.159-.271-.446.889-.873,1.729-1.289,2.575a.805.805,0,0,1-.626.489c-.34.052-.682.094-1.023.142q-.9.128-1.8.26l-.049.09a2.359,2.359,0,0,1,.267.193c.58.551,1.153,1.11,1.734,1.66a.934.934,0,0,1,.3.964c-.032.129-.046.262-.068.394Z" transform="translate(-117.93 -209.403)" fill="#0da63e"/>
  </g>
</svg>
