<svg xmlns="http://www.w3.org/2000/svg" width="33.003" height="33.002" viewBox="0 0 33.003 33.002">
  <g id="Grupo_28" data-name="Grupo 28" transform="translate(671 -187.433)">
    <path id="Caminho_11" data-name="Caminho 11" d="M-640.06,211.794q-1.192-3.685-2.387-7.37a1.988,1.988,0,0,0-2.083-1.521l-2.48,0a.6.6,0,0,1-.1-.023c.063-.094.115-.182.175-.263A9.226,9.226,0,0,0-645.1,195.8a9.273,9.273,0,0,0-4.354-6.888,9,9,0,0,0-4.252-1.433.776.776,0,0,1-.152-.044h-1.354c-.495.087-1,.136-1.483.268a9.232,9.232,0,0,0-7.1,7.428,9.077,9.077,0,0,0,1.7,7.458l.227.316h-.38c-.741,0-1.482,0-2.223,0a1.989,1.989,0,0,0-2.086,1.518q-1.839,5.673-3.675,11.348-.39,1.2-.775,2.41v.645a8.3,8.3,0,0,0,.45.865,2.085,2.085,0,0,0,1.226.746h29.651A2.212,2.212,0,0,0-638,218.824v-.645Q-639.029,214.987-640.06,211.794Zm-4.495-7.6c.539,0,.718.133.887.653.163.5.324,1,.5,1.535l-9.425,3.534c.121-.168.181-.259.249-.345q2.011-2.578,4.019-5.158a.5.5,0,0,1,.453-.224C-646.767,204.2-645.661,204.19-644.555,204.192Zm-18.021-8.536a7.845,7.845,0,0,1,5.663-6.544,7.737,7.737,0,0,1,7.76,1.644,7.883,7.883,0,0,1,2.828,6.563,8.173,8.173,0,0,1-1.85,4.814q-3.1,3.952-6.185,7.922c-.038.049-.082.092-.146.164-.251-.32-.489-.62-.724-.922-1.96-2.516-3.949-5.009-5.869-7.555A7.636,7.636,0,0,1-662.576,195.655Zm-5.055,16.281q1.15-3.549,2.3-7.1c.167-.515.349-.646.893-.647,1.117,0,2.234,0,3.351.006a.5.5,0,0,1,.348.151q2.578,3.28,5.138,6.573a.97.97,0,0,1,.054.1c-1.088.408-2.161.812-3.235,1.211a.566.566,0,0,1-.192.014h-8.6c-.032,0-.064-.007-.137-.015C-667.683,212.127-667.661,212.03-667.63,211.936Zm21.047,7.208q-11.166,0-22.332,0a.688.688,0,0,1-.728-.977q.3-.942.607-1.885c.031,0,.062,0,.094,0,.967.01,7.082,0,8.049,0,.43,0,.862-.029,1.289.006a7.014,7.014,0,0,0,3.251-.588c1.809-.731,3.649-1.383,5.477-2.067.089-.033.179-.063.285-.1l4.241,5.568A1.782,1.782,0,0,1-646.584,219.144Zm2.006-.01c-.108-.006-.232-.133-.309-.234q-2.388-3.122-4.765-6.251c-.454-.6-.573-.63-1.277-.366q-3.478,1.305-6.959,2.6a1.856,1.856,0,0,1-.625.11c-1.654.009-8.326,0-10.108,0l.476-1.465h.4c2.9,0,5.8,0,8.7-.007a2.677,2.677,0,0,0,.905-.167q7.55-2.816,15.092-5.651c.08-.03.161-.058.274-.1l.469,1.427c-.273.106-.529.207-.786.3l-4.669,1.75c-.866.324-.967.672-.409,1.4q2.449,3.176,4.9,6.354c.063.081.12.167.215.3C-643.6,219.145-644.091,219.159-644.578,219.134Zm4.433.011a3.047,3.047,0,0,1-1.236-.051c-.339-.166-.543-.614-.8-.945q-2.2-2.855-4.4-5.713l-.241-.315,4.915-1.844.842,2.6q.843,2.6,1.685,5.2C-639.16,218.759-639.434,219.145-640.145,219.144Z" transform="translate(0 0)" fill="#0da63e"/>
    <path id="Caminho_12" data-name="Caminho 12" d="M-495.457,259.611a5.554,5.554,0,0,0,5.555-5.518,5.567,5.567,0,0,0-5.547-5.564,5.565,5.565,0,0,0-5.538,5.541A5.553,5.553,0,0,0-495.457,259.611Zm.018-9.793a4.273,4.273,0,0,1,4.247,4.278,4.261,4.261,0,0,1-4.26,4.227,4.26,4.26,0,0,1-4.246-4.273A4.272,4.272,0,0,1-495.439,249.818Z" transform="translate(-159.053 -57.158)" fill="#0da63e"/>
  </g>
</svg>
