<svg id="Grupo_148" data-name="Grupo 148" xmlns="http://www.w3.org/2000/svg" xmlns:xlink="http://www.w3.org/1999/xlink" width="15.71" height="16.201" viewBox="0 0 15.71 16.201">
  <defs>
    <clipPath id="clip-path">
      <rect id="Retângulo_94" data-name="Retângulo 94" width="15.71" height="16.201" fill="#636363"/>
    </clipPath>
  </defs>
  <g id="Grupo_148-2" data-name="Grupo 148" clip-path="url(#clip-path)">
    <path id="Caminho_100" data-name="Caminho 100" d="M15.709,4.116c0-.305,0-.61-.026-.915a2.193,2.193,0,0,0-1.764-1.99,4.474,4.474,0,0,0-.8-.039c-.466-.005-.4.047-.408-.4a1.129,1.129,0,0,0-.046-.359.629.629,0,0,0-.748-.4.589.589,0,0,0-.5.551c-.009.11,0,.221,0,.332,0,.281,0,.281-.276.281h-6.7c-.093,0-.133-.046-.134-.136,0-.137,0-.274,0-.411A.648.648,0,0,0,4.211.292.619.619,0,0,0,3.529.01a.572.572,0,0,0-.493.448A1.18,1.18,0,0,0,3,.8c0,.407.044.367-.376.369-.158,0-.316-.006-.474,0A2.162,2.162,0,0,0,.287,2.314,2.538,2.538,0,0,0,0,3.626q0,4.8,0,9.607c0,.331,0,.662.025.994a2.093,2.093,0,0,0,.41,1.111,1.992,1.992,0,0,0,1.477.862H13.765a3.933,3.933,0,0,0,.434-.068,2.21,2.21,0,0,0,1.236-1.047,2.574,2.574,0,0,0,.273-1.284q0-4.843,0-9.686M14.45,13.959A.955.955,0,0,1,13.409,15H2.3a.956.956,0,0,1-1.04-1.042q0-3.745,0-7.49c0-.135.039-.162.167-.161q3.224.006,6.447,0,3.208,0,6.416,0c.128,0,.166.027.166.162q-.007,3.745,0,7.49m0-9.161c0,.313,0,.313-.308.313h-6.3q-3.2,0-6.4,0c-.136,0-.188-.022-.185-.175.011-.5,0-1,0-1.5a.951.951,0,0,1,1.028-1.02c.216,0,.432,0,.648,0,.094,0,.13.017.124.119-.01.157-.007.316,0,.474a.6.6,0,1,0,1.2-.016,3.21,3.21,0,0,0,0-.41c-.017-.149.044-.168.175-.167,1.069.005,2.138,0,3.207,0,1.222,0,2.443,0,3.665,0,.119,0,.168.023.157.153a4.169,4.169,0,0,0,0,.426.6.6,0,1,0,1.2.013c.006-.158.006-.316,0-.474,0-.084.013-.121.109-.118.258.007.516,0,.774,0a.916.916,0,0,1,.9.816c.048.519.011,1.042.017,1.563" transform="translate(0 0.001)" fill="#636363"/>
  </g>
</svg>
