<svg id="Grupo_112" data-name="Grupo 112" xmlns="http://www.w3.org/2000/svg" xmlns:xlink="http://www.w3.org/1999/xlink" width="46.492" height="46.476" viewBox="0 0 46.492 46.476">
  <defs>
    <clipPath id="clip-path">
      <rect id="Retângulo_84" data-name="Retângulo 84" width="46.492" height="46.476" fill="#0da63e"/>
    </clipPath>
  </defs>
  <g id="Grupo_111" data-name="Grupo 111" clip-path="url(#clip-path)">
    <path id="Caminho_77" data-name="Caminho 77" d="M0,117.036a.411.411,0,0,1,0,.544Z" transform="translate(0 -102.849)" fill="#0da63e"/>
    <path id="Caminho_78" data-name="Caminho 78" d="M0,124.518c.1.06.124.121,0,.181Z" transform="translate(0 -109.424)" fill="#0da63e"/>
    <path id="Caminho_79" data-name="Caminho 79" d="M46.492,15.073a1.463,1.463,0,0,0-1.024-1.524q-1.582-.626-3.214-1.1a38.783,38.783,0,0,0-11.361-1.562c-.741.007-.742,0-.742-.755,0-1.949,0-3.9,0-5.848a1.561,1.561,0,0,0-1.167-1.728,34.43,34.43,0,0,0-5.1-1.608A32.09,32.09,0,0,0,17.075.027,48.6,48.6,0,0,0,9.708.275a38.216,38.216,0,0,0-8.662,2.27A1.4,1.4,0,0,0,0,3.666V14.187a.693.693,0,0,1,0,.544v.363a.117.117,0,0,1,0,.181v.544c.089.443.051.9.112,1.341a22.316,22.316,0,0,0,2.247,7.146,23.158,23.158,0,0,0,6.253,7.671,23.972,23.972,0,0,0,5.6,3.316,1.994,1.994,0,0,0,1.7-.008c.592-.268,1.183-.538,1.763-.831s.591-.294.862.285a23.965,23.965,0,0,0,4.146,6.135,21.744,21.744,0,0,0,5.026,4.056,12.913,12.913,0,0,0,3.308,1.544h.726a7.6,7.6,0,0,0,.819-.241,22.9,22.9,0,0,0,7.271-5.01,23.441,23.441,0,0,0,4.517-6.531,21.315,21.315,0,0,0,2.127-8.967c.013-3.551-.008-7.1.012-10.653M15.409,32.414a.717.717,0,0,1-.679.01A20.361,20.361,0,0,1,2.986,17.106a17.085,17.085,0,0,1-.265-3.157c0-2.872,0-5.744-.007-8.615a.442.442,0,0,1,.353-.508,35.954,35.954,0,0,1,23.888,0,.441.441,0,0,1,.353.509C27.295,6.963,27.3,8.6,27.3,10.549c-.045,1.476.086,3.276-.078,5.071a19.937,19.937,0,0,1-7.971,14.51,19.56,19.56,0,0,1-3.843,2.283M43.718,21.435c-.046,1.476.079,3.275-.078,5.071A20.7,20.7,0,0,1,31.792,43.471a.838.838,0,0,1-.8-.006,20.78,20.78,0,0,1-10.23-10.681c-.11-.249-.051-.361.148-.514a22.813,22.813,0,0,0,8.516-13.131,21.492,21.492,0,0,0,.587-4.981c0-.289.04-.415.38-.422a36.324,36.324,0,0,1,12.938,2.047.5.5,0,0,1,.393.572c-.016,1.587-.007,3.173-.007,5.081" transform="translate(0 0)" fill="#0da63e"/>
    <path id="Caminho_80" data-name="Caminho 80" d="M74.9,163.192a9.044,9.044,0,0,1-6.3-2.555,1.365,1.365,0,1,1,1.855-1.991,6.294,6.294,0,0,0,8.86.012,1.367,1.367,0,1,1,1.848,2,9.043,9.043,0,0,1-6.267,2.535" transform="translate(-59.838 -139.032)" fill="#0da63e"/>
    <path id="Caminho_81" data-name="Caminho 81" d="M49.687,93.548c-.861,0-1.721,0-2.582,0a1.361,1.361,0,1,1-.021-2.718q2.65-.009,5.3,0a1.361,1.361,0,1,1-.024,2.718c-.891.006-1.781,0-2.672,0" transform="translate(-40.119 -79.815)" fill="#0da63e"/>
    <path id="Caminho_82" data-name="Caminho 82" d="M139.516,93.549c-.876,0-1.751,0-2.627,0a1.361,1.361,0,1,1-.01-2.718q2.65-.009,5.3,0a1.36,1.36,0,1,1,.01,2.717c-.891.009-1.781,0-2.672,0" transform="translate(-119.024 -79.816)" fill="#0da63e"/>
    <path id="Caminho_83" data-name="Caminho 83" d="M209.618,248.033a8.91,8.91,0,0,1,6.281,2.582,1.316,1.316,0,0,1,.4,1.4,1.3,1.3,0,0,1-1.088.962,1.456,1.456,0,0,1-1.3-.493,6.325,6.325,0,0,0-8.726.018,1.434,1.434,0,0,1-1.26.478,1.3,1.3,0,0,1-1.087-.906,1.285,1.285,0,0,1,.337-1.414,8.873,8.873,0,0,1,5.179-2.552c.224-.03.45-.059.675-.073.2-.012.393,0,.589,0" transform="translate(-178.176 -217.963)" fill="#0da63e"/>
    <path id="Caminho_84" data-name="Caminho 84" d="M274.207,180.618c.876,0,1.751,0,2.627,0a1.361,1.361,0,1,1,.016,2.718q-2.649.01-5.3,0a1.36,1.36,0,1,1-.016-2.717c.891-.009,1.781,0,2.672,0" transform="translate(-237.379 -158.721)" fill="#0da63e"/>
  </g>
</svg>
