<svg xmlns="http://www.w3.org/2000/svg" width="27.999" height="28.105" viewBox="0 0 27.999 28.105">
  <g id="Grupo_70" data-name="Grupo 70" transform="translate(1163.604 -1096.418)">
    <path id="Caminho_3" data-name="Caminho 3" d="M-1137.972,1101.626q0-1.376-.006-2.752a2.31,2.31,0,0,0-2.417-2.453c-7.15-.007-13.007,0-18.431.007a2.7,2.7,0,0,0-1.171.271,2.2,2.2,0,0,0-1.23,2.038c-.008.759-.006,1.5,0,2.288q0,.308,0,.62h-2.373v6.489h2.369v2.916q0,3.937,0,7.873a2.311,2.311,0,0,0,1.93,2.35,3.108,3.108,0,0,0,.484.04c0,.15,0,.3,0,.45,0,.381,0,.775.01,1.166a1.6,1.6,0,0,0,1.553,1.574c.9.025,1.835.026,2.859,0a1.562,1.562,0,0,0,1.516-1.272,3.452,3.452,0,0,0,.059-.726v-.1c.005-.35,0-.7,0-1.043v-.035h6.421q0,.1,0,.207c0,.453,0,.88,0,1.319a1.632,1.632,0,0,0,1.587,1.65c.443.012.89.018,1.341.018.514,0,1.032-.008,1.549-.023a1.579,1.579,0,0,0,1.507-1.521c.017-.393.016-.789.014-1.171,0-.165,0-.33,0-.495a3.082,3.082,0,0,0,.5-.042,2.3,2.3,0,0,0,1.916-2.359q0-3.97,0-7.941v-2.864h2.37v-6.481Zm.778,1.625v3.267h-.754v-3.267Zm-4.808,19.664a.16.16,0,0,1-.042.005c-.912,0-1.8.006-2.684,0-.05,0-.072,0-.074-.111-.008-.43-.006-.856,0-1.307,0-.06,0-.12,0-.181h2.813q0,.093,0,.185C-1141.989,1121.969-1141.986,1122.448-1142,1122.915Zm-12.419-.008a.161.161,0,0,1-.082.015h-.679c-.639,0-1.3,0-1.95,0a.2.2,0,0,1-.08-.013.1.1,0,0,1-.007-.044c-.007-.447-.006-.889,0-1.357q0-.094,0-.189h2.811q0,.091,0,.183c0,.476.006.925-.01,1.382C-1154.421,1122.9-1154.424,1122.909-1154.422,1122.907Zm14.857-8.688q0,2.284,0,4.568c0,.691-.248.935-.947.935h-18.192c-.693,0-.939-.247-.939-.943q0-2.259,0-4.519v-1.768h20.079Zm-20.08-14.669c0-.247,0-.5,0-.753a.709.709,0,0,1,.776-.78q9.268,0,18.536,0a.663.663,0,0,1,.742.609c.033.491.026.982.018,1.5,0,.1,0,.2,0,.3h-20.068v-.538Q-1159.644,1099.722-1159.645,1099.55Zm20.049,2.487v8.832h-9.2v-8.832Zm-10.821,0v8.832h-9.2v-8.832Zm-10.838,1.214v3.266h-.765v-3.266Z" fill="#0da63e"/>
    <path id="Caminho_4" data-name="Caminho 4" d="M-933.658,1324.351h.031a2.362,2.362,0,0,0,1.663-.69,2.412,2.412,0,0,0,.731-1.72,2.373,2.373,0,0,0-.7-1.691,2.382,2.382,0,0,0-1.693-.714h0a2.4,2.4,0,0,0-2.4,2.392A2.419,2.419,0,0,0-933.658,1324.351Zm-.787-2.4a.812.812,0,0,1,.247-.575.817.817,0,0,1,.569-.244h.011a.806.806,0,0,1,.785.805.778.778,0,0,1-.793.809A.8.8,0,0,1-934.446,1321.947Z" transform="translate(-209.957 -205.848)" fill="#0da63e"/>
    <path id="Caminho_5" data-name="Caminho 5" d="M-1089.092,1324.35h.017a2.423,2.423,0,0,0,2.4-2.4,2.4,2.4,0,0,0-2.381-2.415h-.016a2.42,2.42,0,0,0-2.4,2.376,2.408,2.408,0,0,0,.7,1.723A2.388,2.388,0,0,0-1089.092,1324.35Zm.022-3.223h0a.808.808,0,0,1,.564.248.8.8,0,0,1,.242.565.807.807,0,0,1-.816.8h0a.79.79,0,0,1-.566-.226.8.8,0,0,1-.228-.577A.8.8,0,0,1-1089.07,1321.127Z" transform="translate(-66.544 -205.847)" fill="#0da63e"/>
    <rect id="Retângulo_18" data-name="Retângulo 18" width="5.577" height="1.55" transform="translate(-1152.398 1115.324)" fill="#0da63e"/>
  </g>
</svg>
